<?xml version="1.0" encoding="utf-8"?>
<!-- Generator: Adobe Illustrator 21.1.0, SVG Export Plug-In . SVG Version: 6.00 Build 0)  -->
<svg version="1.1" id="Layer_1" xmlns="http://www.w3.org/2000/svg" xmlns:xlink="http://www.w3.org/1999/xlink" x="0px" y="0px"
	 viewBox="0 0 495 322.2" style="enable-background:new 0 0 495 322.2;" xml:space="preserve">
<style type="text/css">
	.st0{fill-rule:evenodd;clip-rule:evenodd;}
	.st1{fill:#ED174C;}
</style>
<path class="st0" d="M107.5,92.5l-79.1,39.1l-0.2-7.6l79.3-42.1L107.5,92.5z M212.2,40.8l-77.6,38.4V67.5l77.6-41.2l170.5,67.3
	l-3.1,5.8L212.2,40.8z"/>
<path class="st0" d="M172,152.4c-0.1-1.9-0.1-3.9-0.1-5.8c0-6.4,0.5-13,1.8-19.3l-13,12.4L172,152.4z M139.4,157.8l-3.9,3.8v62.9
	h-28.9l0-184l28.9-17.6v107.2l29-29c34.3-32.6,86-42.4,126.9-15.5l2.1,1.4v31.9l-7.1-4.5c-5.8-3.7-11.6-7.7-17.8-10.8
	c-3.7-1.8-7.6-3.1-11.5-4.2c-4.6-1.2-9.5-1.6-14.2-1.6c-5.6,0-11,1-16.2,3.1c-5.1,2.1-9.4,5.1-13.2,9c-4.1,4.4-6.8,9.6-8.8,15.2
	c-2.4,6.8-3.2,14.1-3.2,21.3c0,7.2,0.8,14.8,3.4,21.6c2.1,5.5,5,10.7,9.1,15c3.6,3.9,7.9,6.8,12.9,8.7c5.1,2,10.5,3,16,3
	c4.9,0,9.9-0.5,14.7-1.7c4.1-1,8.2-2.4,12-4.4c3-1.5,6-3.2,8.8-5.2c2-1.4,4.1-2.9,5.9-4.6l1.3-1.2h7.9v26.5l-0.5,1
	c-5.9,12.1-32.9,18.1-44.7,19.1c-27.6,2.3-53.4-7-73-26.8L139.4,157.8z"/>
<path class="st1" d="M178.5,166.6c-1.4-6.1-2.1-12.8-2.1-20c0-11,1.6-20.6,4.7-28.8c1-2.5,2.1-5,3.4-7.3l-30.3,29L178.5,166.6z
	 M178.6,194.5l-39.1-43.4l-8.7,8.6v60.2h-19.7l0-176.8l19.7-12v110.1l36.8-36.7c25.3-24,75.2-45.2,121.1-15v21.1
	c-5.9-3.7-11.9-7.9-18.2-11c-3.8-1.8-7.9-3.3-12.3-4.5c-4.4-1.2-9.6-1.8-15.4-1.8c-6.3,0-12.3,1.1-17.9,3.4s-10.6,5.7-14.8,10.2
	c-4.2,4.5-7.4,10.1-9.7,16.9c-2.3,6.8-3.5,14.4-3.5,22.9c0,9,1.2,16.8,3.7,23.3c2.5,6.5,5.8,12,10.1,16.5c4.1,4.3,9,7.6,14.5,9.8
	c5.6,2.2,11.5,3.3,17.7,3.3c5.7,0,11-0.6,15.8-1.8c4.9-1.2,9.2-2.8,12.9-4.7c3.7-1.8,6.8-3.7,9.4-5.6c2.7-1.9,4.8-3.5,6.3-4.9h1.5
	v20.8C283.1,215.3,222.2,238.4,178.6,194.5z"/>
<path class="st0" d="M15.5,230.6h416c4.5,0,8.4-0.5,12.8-1.9c4.2-1.4,7-3.1,8.5-4.9c1.1-1.3,1.5-2.6,1.3-3.9
	c-0.2-1.4-1.2-2.9-2.8-4.2c-4.9-4.2-15.1-7.5-29.1-7.5h0v0c-10.8,0-19.5-4.1-25.4-9.9c-6-5.9-9.2-13.5-9.2-20.7h0v0h3.5v0h0
	c0,6.2,2.9,13,8.1,18.1c5.3,5.2,13.1,8.9,22.9,8.9v0h0c14.9,0,26,3.7,31.4,8.4c2.2,1.9,3.6,4.1,3.9,6.3c0.4,2.3-0.3,4.6-2.1,6.8
	c-5.1,6-15.8,8.1-23.4,8.2H15.5V230.6z"/>
<polygon class="st0" points="79.8,113.1 79.8,222.4 72.8,222.4 72.8,116.9 "/>
<path d="M441,281h-1.9v-1.9L441,281z M439.1,279.1l1.9-1.9h4.3v3.8H441L439.1,279.1z M445.3,277.1h1.9v1.9L445.3,277.1z
	 M445.3,277.1l1.9,1.9v13.5h-3.8v-13.5L445.3,277.1z M447.2,292.5v1.9l-1.9,0L447.2,292.5z M447.2,292.5l-1.9,1.9h-5.6v-3.8h5.6
	L447.2,292.5z M439.7,290.6v3.8l-0.3,0l-0.3,0l-0.3,0l-0.3,0l-0.3,0l-0.3-0.1l-0.3-0.1l-0.3-0.1l-0.3-0.1l-0.3-0.1l-0.2-0.1
	l-0.2-0.1l-0.2-0.2l-0.2-0.2l-0.2-0.2l-0.2-0.2l-0.2-0.2l-0.2-0.2l-0.2-0.2l-0.1-0.2l-0.1-0.3l-0.1-0.3l-0.1-0.3l-0.1-0.3l-0.1-0.3
	l-0.1-0.3l-0.1-0.3l0-0.3l0-0.3l0-0.3l0-0.3l0-0.3h3.8l0,0.2l0,0.2l0,0.2l0,0.2l0,0.1l0,0.1l0,0.1l0,0.1l0,0.1l0,0.1l0,0.1l0,0.1
	l0,0.1l0,0.1l0,0l0,0l0,0l0,0l0,0l0,0l0,0l0.1,0l0.1,0l0.1,0l0.1,0l0.1,0l0.1,0l0.1,0l0.1,0l0.1,0l0.1,0L439.7,290.6z M434.2,288.5
	L434.2,288.5v-33.6h3.8v33.6H434.2z M438,254.9h-3.8l0-0.3l0-0.3l0-0.3l0-0.3l0-0.3l0.1-0.3l0.1-0.3l0.1-0.3l0.1-0.3l0.1-0.3
	l0.1-0.3l0.1-0.3l0.1-0.2l0.2-0.2l0.2-0.2l0.2-0.2l0.2-0.2l0.2-0.2l0.2-0.2l0.2-0.2l0.2-0.1l0.2-0.1l0.3-0.1l0.3-0.1l0.3-0.1
	l0.3-0.1l0.3-0.1l0.3,0l0.3,0l0.3,0l0.3,0l0.3,0v3.8l-0.2,0l-0.1,0l-0.1,0l-0.1,0l-0.1,0l-0.1,0l-0.1,0l-0.1,0l-0.1,0l-0.1,0l-0.1,0
	l0,0l0,0l0,0l0,0l0,0l0,0l0,0l0,0.1l0,0.1l0,0.1l0,0.1l0,0.1l0,0.1l0,0.1l0,0.1l0,0.1l0,0.1l0,0.2l0,0.2l0,0.2L438,254.9z
	 M439.7,249L439.7,249h2.1v3.8h-2.1V249z M441.8,252.8V249l0.3,0l0.3,0l0.3,0l0.3,0l0.3,0l0.3,0.1l0.3,0.1l0.3,0.1l0.3,0.1l0.3,0.1
	l0.3,0.1l0.2,0.2l0.2,0.2l0.2,0.2l0.2,0.2l0.2,0.2l0.2,0.2l0.2,0.2l0.2,0.2l0.1,0.2l0.1,0.3l0.1,0.3l0.1,0.3l0.1,0.3l0.1,0.3
	l0.1,0.3l0.1,0.3l0,0.3l0,0.3l0,0.3l0,0.3l0,0.3h-3.8l0-0.2l0-0.2l0-0.2l0-0.2l0-0.1l0-0.1l0-0.1l0-0.1l0-0.1l0-0.1l0-0.1l0-0.1
	l0-0.1l0,0l0,0l0,0l0,0l0,0l0,0l0,0l0,0l0,0l-0.1,0l-0.1,0l-0.1,0l-0.1,0l-0.1,0l-0.1,0l-0.1,0l-0.1,0l-0.1,0L441.8,252.8z
	 M447.2,254.9L447.2,254.9v4.9h-3.8v-4.9H447.2z M445.3,261.7h-1.9v-1.9L445.3,261.7z M443.4,259.8l1.9-1.9h8.2v3.8h-8.2
	L443.4,259.8z M455.4,259.8v1.9h-1.9L455.4,259.8z M453.5,261.7l-1.9-1.9v-6h3.8v6L453.5,261.7z M455.4,253.8h-3.8l0-0.5l0-0.5
	l0-0.5l-0.1-0.4l-0.1-0.4l-0.1-0.4l-0.1-0.4l-0.1-0.4l-0.1-0.3l-0.1-0.3l-0.2-0.3l-0.2-0.3l-0.2-0.3l-0.2-0.2l-0.2-0.2l-0.2-0.2
	l-0.2-0.2l-0.3-0.2l-0.3-0.2l-0.3-0.2l-0.3-0.2l-0.3-0.2l-0.4-0.1l-0.4-0.1l-0.4-0.1l-0.4-0.1l-0.5-0.1l-0.5-0.1l-0.5-0.1l-0.5,0
	l-0.6,0l-0.6,0v-3.8l0.7,0l0.7,0l0.7,0.1l0.7,0.1l0.6,0.1l0.6,0.1l0.6,0.1l0.6,0.2l0.6,0.2l0.5,0.2l0.5,0.2l0.5,0.3l0.5,0.3l0.5,0.3
	l0.4,0.3l0.4,0.4l0.4,0.4l0.4,0.4l0.4,0.4l0.3,0.5l0.3,0.5l0.3,0.5l0.2,0.5l0.2,0.5l0.2,0.5l0.2,0.6l0.1,0.6l0.1,0.6l0.1,0.6
	l0.1,0.6l0,0.6L455.4,253.8z M443.1,246.2L443.1,246.2l-5.7,0v-3.8h5.7V246.2z M437.4,242.4v3.8v0l-0.5,0l-0.5,0l-0.5,0l-0.5,0.1
	l-0.4,0.1l-0.4,0.1l-0.4,0.1l-0.4,0.1l-0.3,0.1l-0.3,0.1l-0.3,0.1l-0.3,0.2l-0.3,0.2l-0.3,0.2l-0.2,0.2l-0.2,0.2l-0.2,0.2l-0.2,0.2
	l-0.2,0.2l-0.2,0.3l-0.2,0.3l-0.2,0.3l-0.1,0.3l-0.1,0.3l-0.1,0.4l-0.1,0.4l-0.1,0.4l-0.1,0.4l-0.1,0.4l0,0.5l0,0.5l0,0.5h-3.8
	l0-0.6l0-0.6l0.1-0.6l0.1-0.6l0.1-0.6l0.1-0.6l0.1-0.6l0.2-0.5l0.2-0.5l0.2-0.5l0.2-0.5l0.3-0.5l0.3-0.4l0.3-0.4l0.4-0.4l0.4-0.4
	l0.4-0.4l0.4-0.3l0.4-0.3l0.5-0.3l0.5-0.3l0.5-0.2l0.5-0.2l0.5-0.2l0.5-0.2l0.6-0.1l0.6-0.1l0.6-0.1l0.6-0.1l0.6-0.1l0.6,0
	L437.4,242.4L437.4,242.4z M429.8,253.7L429.8,253.7v36.2h-3.8v-36.2H429.8z M425.9,289.9h3.8l0,0.5l0,0.5l0,0.5l0.1,0.4l0.1,0.4
	l0.1,0.4l0.1,0.4l0.1,0.3l0.1,0.3l0.1,0.3l0.2,0.3l0.2,0.3l0.2,0.3l0.2,0.2l0.2,0.2l0.2,0.2l0.2,0.2l0.2,0.2l0.2,0.2l0.3,0.2
	l0.3,0.2l0.3,0.1l0.3,0.1l0.3,0.1l0.4,0.1l0.4,0.1l0.4,0.1l0.4,0.1l0.5,0.1l0.5,0l0.5,0l0.5,0v3.8l-0.6,0l-0.6,0l-0.6-0.1l-0.6-0.1
	l-0.6-0.1l-0.6-0.1l-0.6-0.1l-0.5-0.2l-0.5-0.2l-0.5-0.2l-0.5-0.2l-0.5-0.3l-0.5-0.3l-0.4-0.3l-0.4-0.3l-0.4-0.4l-0.4-0.4l-0.3-0.4
	l-0.3-0.4l-0.3-0.4l-0.3-0.5l-0.2-0.5l-0.2-0.5l-0.2-0.5l-0.2-0.5l-0.2-0.5l-0.1-0.6l-0.1-0.6l-0.1-0.6l-0.1-0.6l0-0.6L425.9,289.9z
	 M437.4,297.2L437.4,297.2l16.1,0v3.8h-16.1V297.2z M455.4,299.2v1.9h-1.9L455.4,299.2z M453.5,301.1l-1.9-1.9v-26.8h3.8v26.8
	L453.5,301.1z M453.5,270.5h1.9v1.9L453.5,270.5z M455.4,272.4l-1.9,1.9H441v-3.8h12.5L455.4,272.4z M439.1,272.4v-1.9h1.9
	L439.1,272.4z M441,270.5l1.9,1.9v6.6h-3.8v-6.6L441,270.5z M414.2,270.8l-3.7,0.6l-8.8-26.5l3.6-1.2l8.8,26.5L414.2,270.8z
	 M403.5,242.4h1.4l0.4,1.3L403.5,242.4z M405.3,243.7l-1.8,2.5h-8.2v-3.8h8.2L405.3,243.7z M393.3,244.3v-1.9h1.9L393.3,244.3z
	 M395.3,242.4l1.9,1.9v54.9h-3.8v-54.9L395.3,242.4z M395.3,301.1h-1.9v-1.9L395.3,301.1z M393.3,299.2l1.9-1.9h8.2v3.8h-8.2
	L393.3,299.2z M405.4,299.2v1.9h-1.9L405.4,299.2z M403.5,301.1l-1.9-1.9v-35.9h3.8v35.9L403.5,301.1z M401.6,263.2l3.7-0.6l8.8,25
	l-3.6,1.3l-8.8-25L401.6,263.2z M414.1,287.6l0.1,0.3v0.3L414.1,287.6z M414.1,287.6l0.1,0.6v10.9h-3.8v-10.9L414.1,287.6z
	 M412.3,301.1h-1.9v-1.9L412.3,301.1z M410.4,299.2l1.9-1.9h8.2v3.8h-8.2L410.4,299.2z M422.5,299.2v1.9h-1.9L422.5,299.2z
	 M420.6,301.1l-1.9-1.9v-54.9h3.8v54.9L420.6,301.1z M420.6,242.4h1.9v1.9L420.6,242.4z M422.5,244.3l-1.9,1.9h-8.2v-3.8h8.2
	L422.5,244.3z M410.4,244.3v-1.9h1.9L410.4,244.3z M412.3,242.4l1.9,1.9v26.5h-3.8v-26.5L412.3,242.4z M379.3,301.1h-1.9l0-1.9
	L379.3,301.1z M377.4,299.2l1.9-1.9h8.2v3.8h-8.2L377.4,299.2z M389.4,299.2v1.9l-1.9,0L389.4,299.2z M387.5,301.1l-1.9-1.9v-54.9
	h3.8v54.9L387.5,301.1z M387.5,242.4h1.9l0,1.9L387.5,242.4z M389.4,244.3l-1.9,1.9h-8.2v-3.8h8.2L389.4,244.3z M377.4,244.3v-1.9
	l1.9,0L377.4,244.3z M379.3,242.4l1.9,1.9v54.9h-3.8v-54.9L379.3,242.4z M365.3,270.8l-3.7,0.6l-8.8-26.5l3.6-1.2l8.8,26.5
	L365.3,270.8z M354.5,242.4h1.4l0.4,1.3L354.5,242.4z M356.3,243.7l-1.8,2.5h-8.2v-3.8h8.2L356.3,243.7z M344.3,244.3v-1.9h1.9
	L344.3,244.3z M346.3,242.4l1.9,1.9v54.9h-3.8v-54.9L346.3,242.4z M346.3,301.1h-1.9v-1.9L346.3,301.1z M344.3,299.2l1.9-1.9h8.2
	v3.8h-8.2L344.3,299.2z M356.4,299.2v1.9h-1.9L356.4,299.2z M354.5,301.1l-1.9-1.9v-35.9h3.8v35.9L354.5,301.1z M352.6,263.2
	l3.7-0.6l8.8,25l-3.6,1.3l-8.8-25L352.6,263.2z M365.1,287.6l0.1,0.3v0.3L365.1,287.6z M365.1,287.6l0.1,0.6v10.9h-3.8v-10.9
	L365.1,287.6z M363.3,301.1h-1.9l0-1.9L363.3,301.1z M361.4,299.2l1.9-1.9h8.2v3.8h-8.2L361.4,299.2z M373.5,299.2v1.9l-1.9,0
	L373.5,299.2z M371.6,301.1l-1.9-1.9v-54.9h3.8v54.9L371.6,301.1z M371.6,242.4h1.9l0,1.9L371.6,242.4z M373.5,244.3l-1.9,1.9h-8.2
	v-3.8h8.2L373.5,244.3z M361.4,244.3v-1.9h1.9L361.4,244.3z M363.3,242.4l1.9,1.9v26.5h-3.8v-26.5L363.3,242.4z M332.6,272.4v1.9
	l-1.9,0L332.6,272.4z M332.6,272.4l-1.9,1.9h-9.4v-3.8h9.4L332.6,272.4z M321.3,274.3h-1.9l0-1.9L321.3,274.3z M321.3,274.3
	l-1.9-1.9v-18.3h3.8v18.3L321.3,274.3z M323.2,254.1h-3.8l0-0.3l0-0.3l0-0.3l0-0.3l0-0.3l0.1-0.3l0.1-0.2l0.1-0.3l0.1-0.2l0.1-0.2
	l0.1-0.2l0.1-0.2l0.2-0.2l0.2-0.2l0.2-0.2l0.2-0.2l0.2-0.2l0.2-0.2l0.2-0.1l0.2-0.1l0.2-0.1l0.2-0.1l0.2-0.1l0.3-0.1l0.2-0.1
	l0.3-0.1l0.3,0l0.3,0l0.3,0l0.3,0l0.3,0l0.3,0v3.8l-0.2,0l-0.2,0l-0.1,0l-0.1,0l-0.1,0l-0.1,0l-0.1,0l-0.1,0l-0.1,0l-0.1,0l-0.1,0
	l-0.1,0l0,0l0,0l0,0l0,0l0,0l0,0l0,0l0,0l0,0l0,0l0,0l0,0.1l0,0.1l0,0.1l0,0.1l0,0.1l0,0.1l0,0.1l0,0.1L323.2,254.1z M324.9,249
	L324.9,249h2.2v3.8h-2.2V249z M327.1,252.8V249l0.3,0l0.3,0l0.3,0l0.3,0l0.3,0l0.3,0l0.3,0.1l0.2,0.1l0.3,0.1l0.2,0.1l0.2,0.1
	l0.2,0.1l0.2,0.1l0.2,0.1l0.2,0.2l0.2,0.2l0.2,0.2l0.2,0.2l0.2,0.2l0.2,0.2l0.1,0.2l0.1,0.2l0.1,0.2l0.1,0.2l0.1,0.3l0.1,0.2
	l0.1,0.3l0,0.3l0,0.3l0,0.3l0,0.3l0,0.3h-3.8l0-0.1l0-0.1l0-0.1l0-0.1l0-0.1l0-0.1l0-0.1l0-0.1l0-0.1l0,0l0,0l0,0l0,0l0,0l0,0l0,0
	l0,0l0,0l0,0l0,0l-0.1,0l-0.1,0l-0.1,0l-0.1,0l-0.1,0l-0.1,0l-0.1,0l-0.1,0l-0.1,0l-0.1,0l-0.2,0L327.1,252.8z M332.6,254.1
	L332.6,254.1v18.3h-3.8v-18.3H332.6z M323.2,299.2v1.9h-1.9L323.2,299.2z M321.3,301.1l-1.9-1.9v-20.1h3.8v20.1L321.3,301.1z
	 M319.4,279.1v-1.9h1.9L319.4,279.1z M319.4,279.1l1.9-1.9h9.4v3.8h-9.4L319.4,279.1z M330.7,277.1h1.9v1.9L330.7,277.1z
	 M330.7,277.1l1.9,1.9v20.1h-3.8v-20.1L330.7,277.1z M330.7,301.1h-1.9v-1.9L330.7,301.1z M328.8,299.2l1.9-1.9h8.2v3.8h-8.2
	L328.8,299.2z M340.9,299.2v1.9H339L340.9,299.2z M339,301.1l-1.9-1.9v-45.5h3.8v45.5L339,301.1z M340.9,253.7h-3.8l0-0.5l0-0.5
	l0-0.5l-0.1-0.4l-0.1-0.4l-0.1-0.4l-0.1-0.4l-0.1-0.4l-0.1-0.3l-0.1-0.3l-0.1-0.3L336,249l-0.2-0.3l-0.2-0.2l-0.2-0.2l-0.2-0.2
	l-0.2-0.2l-0.2-0.2l-0.3-0.2l-0.3-0.2l-0.3-0.2l-0.3-0.2l-0.3-0.1l-0.4-0.1l-0.4-0.1l-0.4-0.1l-0.4-0.1l-0.5-0.1l-0.5-0.1l-0.5,0
	l-0.5,0l-0.6,0v-3.8l0.7,0l0.7,0l0.6,0.1l0.6,0.1l0.6,0.1l0.6,0.1l0.6,0.1l0.6,0.2l0.5,0.2l0.5,0.2l0.5,0.2l0.5,0.3l0.5,0.3l0.5,0.3
	l0.4,0.3l0.4,0.4l0.4,0.4l0.4,0.4l0.3,0.4l0.3,0.5l0.3,0.5l0.3,0.5l0.2,0.5l0.2,0.5l0.2,0.5l0.1,0.6l0.1,0.6l0.1,0.6l0.1,0.6
	l0.1,0.6l0,0.6L340.9,253.7z M329.1,246.2L329.1,246.2h-6.2v-3.8h6.2V246.2z M322.9,242.4v3.8l-0.6,0l-0.5,0l-0.5,0l-0.5,0.1
	l-0.5,0.1l-0.4,0.1l-0.4,0.1l-0.4,0.1l-0.4,0.1l-0.3,0.1l-0.3,0.2l-0.3,0.2l-0.3,0.2l-0.3,0.2l-0.2,0.2l-0.2,0.2l-0.2,0.2l-0.2,0.2
	l-0.2,0.2L316,249l-0.2,0.3l-0.1,0.3l-0.1,0.3l-0.1,0.3l-0.1,0.4l-0.1,0.4l-0.1,0.4l-0.1,0.4l-0.1,0.4l0,0.5l0,0.5l0,0.5h-3.8l0-0.6
	l0-0.6l0.1-0.6l0.1-0.6l0.1-0.6l0.1-0.6l0.1-0.6l0.2-0.5l0.2-0.5l0.2-0.5l0.3-0.5l0.3-0.5l0.3-0.5l0.3-0.4l0.4-0.4l0.4-0.4l0.4-0.4
	l0.4-0.3l0.5-0.3l0.5-0.3l0.5-0.3l0.5-0.2l0.5-0.2l0.5-0.2l0.6-0.2l0.6-0.1l0.6-0.1l0.6-0.1l0.6-0.1l0.6-0.1l0.7,0L322.9,242.4z
	 M315,253.7L315,253.7v45.5h-3.8v-45.5H315z M313,301.1h-1.9l0-1.9L313,301.1z M311.1,299.2l1.9-1.9h8.2v3.8H313L311.1,299.2z
	 M287.1,301.1h-1.9v-1.9L287.1,301.1z M285.2,299.2l1.9-1.9h20.4v3.8h-20.4L285.2,299.2z M309.5,299.2v1.9h-1.9L309.5,299.2z
	 M307.6,301.1l-1.9-1.9v-6.6h3.8v6.6L307.6,301.1z M307.6,290.6h1.9v1.9L307.6,290.6z M309.5,292.5l-1.9,1.9h-12.2v-3.8h12.2
	L309.5,292.5z M295.4,294.4h-1.9l0-1.9L295.4,294.4z M295.4,294.4l-1.9-1.9v-18.3h3.8v18.3L295.4,294.4z M293.5,274.2v-1.9h1.9
	L293.5,274.2z M293.5,274.2l1.9-1.9h10.8v3.8h-10.8L293.5,274.2z M308.1,274.2v1.9h-1.9L308.1,274.2z M306.2,276.2l-1.9-1.9v-6.6
	h3.8v6.6L306.2,276.2z M306.2,265.7h1.9v1.9L306.2,265.7z M308.1,267.6l-1.9,1.9h-10.8v-3.8h10.8L308.1,267.6z M295.4,269.5h-1.9
	v-1.9L295.4,269.5z M295.4,269.5l-1.9-1.9v-16.7h3.8v16.7L295.4,269.5z M293.5,250.9V249h1.9L293.5,250.9z M293.5,250.9l1.9-1.9
	h12.2v3.8h-12.2L293.5,250.9z M309.5,250.9v1.9h-1.9L309.5,250.9z M307.6,252.8l-1.9-1.9v-6.6h3.8v6.6L307.6,252.8z M307.6,242.4
	h1.9l0,1.9L307.6,242.4z M309.5,244.3l-1.9,1.9h-20.4v-3.8h20.4L309.5,244.3z M285.2,244.3v-1.9h1.9L285.2,244.3z M287.1,242.4
	l1.9,1.9v54.9h-3.8v-54.9L287.1,242.4z M283.5,299.2v1.9h-1.9L283.5,299.2z M281.6,301.1l-1.9-1.9v-6.6h3.8v6.6L281.6,301.1z
	 M281.6,290.6h1.9l0,1.9L281.6,290.6z M283.5,292.5l-1.9,1.9h-11.3v-3.8h11.3L283.5,292.5z M270.2,294.4h-1.9v-1.9L270.2,294.4z
	 M270.2,294.4l-1.9-1.9v-48.2h3.8v48.2L270.2,294.4z M270.2,242.4h1.9v1.9L270.2,242.4z M272.1,244.3l-1.9,1.9H262v-3.8h8.2
	L272.1,244.3z M260.1,244.3v-1.9l1.9,0L260.1,244.3z M262,242.4l1.9,1.9v54.9h-3.8v-54.9L262,242.4z M262,301.1h-1.9v-1.9L262,301.1
	z M260.1,299.2l1.9-1.9h19.6v3.8H262L260.1,299.2z M255.6,284.4h1.9v1.9L255.6,284.4z M257.5,286.3l-1.9,1.9h-8.2v-3.8h8.2
	L257.5,286.3z M245.4,286.3v-1.9h1.9L245.4,286.3z M247.3,284.4l1.9,1.9v3h-3.8v-3L247.3,284.4z M245.4,289.3h3.8h0l0,0.3l0,0.3
	l0,0.3l0,0.3l0,0.3l-0.1,0.2l-0.1,0.2l-0.1,0.3l-0.1,0.2l-0.1,0.2l-0.1,0.2l-0.1,0.2l-0.1,0.2l-0.2,0.2l-0.2,0.2l-0.2,0.2l-0.2,0.2
	l-0.2,0.2l-0.2,0.2l-0.2,0.1l-0.2,0.1l-0.2,0.1l-0.2,0.1l-0.2,0.1l-0.2,0.1l-0.3,0.1l-0.3,0l-0.2,0l-0.2,0l-0.3,0l-0.3,0l-0.3,0
	v-3.8l0.1,0l0.1,0l0.1,0l0.1,0l0.1,0l0.1,0l0.1,0l0.1,0l0.1,0l0,0l0,0l0,0l0,0l0,0l0,0l0,0l0,0l0,0l0,0l0,0l0,0l0,0l0,0l0-0.1l0-0.1
	l0-0.1l0-0.1l0-0.1l0-0.1l0-0.1l0-0.1L245.4,289.3L245.4,289.3z M244.1,294.4L244.1,294.4H242v-3.8h2.1V294.4z M242,290.6v3.8v0
	l-0.3,0l-0.3,0l-0.3,0l-0.3,0l-0.2,0l-0.3,0l-0.3-0.1l-0.2-0.1l-0.2-0.1l-0.2-0.1l-0.2-0.1l-0.2-0.1l-0.2-0.1l-0.2-0.2l-0.2-0.2
	l-0.2-0.2l-0.2-0.2l-0.2-0.2l-0.2-0.2l-0.1-0.2l-0.1-0.2l-0.1-0.2l-0.1-0.2l-0.1-0.2l-0.1-0.3l-0.1-0.2l-0.1-0.2l0-0.3l0-0.3l0-0.3
	l0-0.3l0-0.3h3.8l0,0.1l0,0.1l0,0.1l0,0.1l0,0.1l0,0.1l0,0.1l0,0.1l0,0.1l0,0l0,0l0,0l0,0l0,0l0,0l0,0l0,0l0,0l0,0l0,0l0,0l0,0l0,0
	l0.1,0l0.1,0l0.1,0l0.1,0l0.1,0l0.1,0l0.1,0l0.1,0L242,290.6L242,290.6z M236.8,289.3L236.8,289.3v-35.2h3.8v35.2H236.8z
	 M240.6,254.1h-3.8h0l0-0.3l0-0.3l0-0.3l0-0.3l0-0.3l0.1-0.2l0.1-0.2l0.1-0.3l0.1-0.2l0.1-0.2l0.1-0.2l0.1-0.2l0.1-0.2l0.2-0.2
	l0.2-0.2l0.2-0.2l0.2-0.2l0.2-0.2l0.2-0.2l0.2-0.1l0.2-0.1l0.2-0.1l0.2-0.1l0.2-0.1l0.2-0.1l0.3-0.1l0.3,0l0.2,0l0.3,0l0.3,0l0.3,0
	l0.3,0v3.8l-0.1,0l-0.1,0l-0.1,0l-0.1,0l-0.1,0l-0.1,0l-0.1,0l-0.1,0l-0.1,0l0,0l0,0l0,0l0,0l0,0l0,0l0,0l0,0l0,0l0,0l0,0l0,0l0,0
	l0,0l0,0.1l0,0.1l0,0.1l0,0.1l0,0.1l0,0.1l0,0.1l0,0.1L240.6,254.1L240.6,254.1z M242,249L242,249l1.6,0v3.8H242V249z M243.6,252.8
	V249l0.3,0l0.3,0l0.3,0l0.3,0l0.3,0l0.3,0l0.3,0.1l0.3,0.1l0.3,0.1l0.2,0.1l0.3,0.1l0.2,0.1l0.2,0.1l0.2,0.2l0.2,0.2l0.2,0.2
	l0.2,0.2l0.2,0.2l0.2,0.2l0.2,0.2l0.2,0.2l0.1,0.2l0.1,0.2l0.1,0.3l0.1,0.3l0.1,0.3l0.1,0.3l0,0.3l0,0.3l0,0.3l0,0.3l0,0.3h-3.8
	l0-0.1l0-0.1l0-0.1l0-0.1l0-0.1l0-0.1l0-0.1l0-0.1l0,0l0,0l0,0l0,0l0,0l0,0l0,0l0,0l0,0l0,0l0,0l-0.1,0l-0.1,0l-0.1,0l-0.1,0l-0.1,0
	l-0.1,0l-0.1,0l-0.1,0l-0.1,0l-0.1,0l-0.2,0l-0.2,0L243.6,252.8z M249.2,254.1L249.2,254.1v5.7h-3.8v-5.7H249.2z M247.3,261.7h-1.9
	v-1.9L247.3,261.7z M245.4,259.8l1.9-1.9h8.2v3.8h-8.2L245.4,259.8z M257.5,259.8v1.9l-1.9,0L257.5,259.8z M255.6,261.7l-1.9-1.9
	v-6.2h3.8v6.2L255.6,261.7z M257.5,253.6h-3.8l0-0.5l0-0.5l0-0.5l-0.1-0.4l-0.1-0.4l-0.1-0.4l-0.1-0.4l-0.1-0.3l-0.1-0.3l-0.1-0.3
	l-0.1-0.3l-0.2-0.3l-0.2-0.3l-0.2-0.2l-0.2-0.2l-0.2-0.2l-0.2-0.2l-0.2-0.2l-0.3-0.2l-0.3-0.2l-0.3-0.2l-0.3-0.1l-0.3-0.1l-0.4-0.1
	l-0.4-0.1l-0.4-0.1l-0.4-0.1l-0.5-0.1l-0.5-0.1l-0.5,0l-0.5,0l-0.6,0v-3.8l0.7,0l0.7,0l0.6,0.1l0.6,0.1l0.6,0.1l0.6,0.1l0.6,0.1
	l0.6,0.2l0.5,0.2l0.5,0.2l0.5,0.2l0.5,0.3l0.5,0.3l0.5,0.3l0.4,0.3l0.4,0.4l0.4,0.4l0.4,0.4l0.3,0.4l0.3,0.5l0.3,0.5l0.3,0.5
	l0.2,0.5l0.2,0.5l0.2,0.5l0.1,0.6l0.1,0.6l0.1,0.6l0.1,0.6l0.1,0.6l0,0.6L257.5,253.6z M245.7,246.2L245.7,246.2h-5.3v-3.8h5.3
	V246.2z M240.4,242.4v3.8l-0.6,0l-0.5,0l-0.5,0l-0.5,0.1l-0.5,0.1l-0.4,0.1l-0.4,0.1l-0.4,0.1l-0.4,0.1l-0.3,0.1l-0.3,0.1l-0.3,0.2
	l-0.3,0.2l-0.3,0.2l-0.2,0.2l-0.2,0.2l-0.2,0.2l-0.2,0.2l-0.2,0.2l-0.2,0.3l-0.2,0.3l-0.1,0.3l-0.1,0.3l-0.1,0.3l-0.1,0.3l-0.1,0.4
	l-0.1,0.4l-0.1,0.4l-0.1,0.4l0,0.5l0,0.5l0,0.5h-3.8l0-0.6l0-0.6l0.1-0.6l0.1-0.6l0.1-0.6l0.1-0.6l0.1-0.6l0.2-0.5l0.2-0.5l0.2-0.5
	l0.3-0.5l0.3-0.5l0.3-0.5l0.3-0.4l0.4-0.4l0.4-0.4l0.4-0.4l0.4-0.3l0.5-0.3l0.5-0.3l0.5-0.3l0.5-0.2l0.5-0.2l0.5-0.2l0.6-0.2
	l0.6-0.1l0.6-0.1l0.6-0.1l0.6-0.1l0.6-0.1l0.7,0L240.4,242.4z M232.4,253.6L232.4,253.6v36.2h-3.8v-36.2H232.4z M228.6,289.8h3.8
	l0,0.5l0,0.5l0,0.5l0.1,0.4l0.1,0.4l0.1,0.4l0.1,0.4l0.1,0.3l0.1,0.3l0.1,0.3l0.1,0.3l0.2,0.3l0.2,0.3l0.2,0.2l0.2,0.2l0.2,0.2
	l0.2,0.2l0.2,0.2l0.3,0.2l0.3,0.2l0.3,0.2l0.3,0.1l0.3,0.1l0.4,0.1l0.4,0.1l0.4,0.1l0.4,0.1l0.5,0.1l0.5,0.1l0.5,0l0.5,0l0.6,0v3.8
	l-0.7,0l-0.7,0l-0.6-0.1l-0.6-0.1l-0.6-0.1l-0.6-0.1l-0.6-0.1l-0.6-0.2l-0.5-0.2l-0.5-0.2l-0.5-0.2l-0.5-0.3l-0.5-0.3l-0.5-0.3
	l-0.4-0.3l-0.4-0.4l-0.4-0.4l-0.4-0.4l-0.3-0.4l-0.3-0.5l-0.3-0.5l-0.3-0.5l-0.2-0.5l-0.2-0.5l-0.2-0.5l-0.1-0.6l-0.1-0.6l-0.1-0.6
	l-0.1-0.6l-0.1-0.6l0-0.6L228.6,289.8z M240.4,297.2L240.4,297.2h5.3v3.8h-5.3V297.2z M245.7,301.1v-3.8l0.6,0l0.5,0l0.5,0l0.5-0.1
	l0.5-0.1l0.4-0.1l0.4-0.1l0.4-0.1l0.4-0.1l0.3-0.1l0.3-0.1l0.3-0.2l0.3-0.2l0.3-0.2l0.2-0.2l0.2-0.2l0.2-0.2l0.2-0.2l0.2-0.2
	l0.2-0.3l0.2-0.3l0.1-0.3l0.1-0.3l0.1-0.3l0.1-0.3l0.1-0.4l0.1-0.4l0.1-0.4l0.1-0.4l0-0.5l0-0.5l0-0.5h3.8l0,0.6l0,0.6l-0.1,0.6
	l-0.1,0.6l-0.1,0.6l-0.1,0.6l-0.1,0.6l-0.2,0.5l-0.2,0.5l-0.2,0.5l-0.3,0.5l-0.3,0.5l-0.3,0.5l-0.3,0.4l-0.4,0.4l-0.4,0.4l-0.4,0.4
	l-0.4,0.3l-0.5,0.3l-0.5,0.3l-0.5,0.3l-0.5,0.2l-0.5,0.2l-0.5,0.2l-0.6,0.2l-0.6,0.1l-0.6,0.1l-0.6,0.1l-0.6,0.1L247,301l-0.7,0
	L245.7,301.1z M253.6,289.8L253.6,289.8v-3.5h3.8v3.5H253.6z M202.9,260.9H201V259L202.9,260.9z M201,259l1.9-1.9h8.2v3.8h-8.2
	L201,259z M213.1,259v1.9h-1.9L213.1,259z M211.2,260.9l-1.9-1.9v-5.4h3.8v5.4L211.2,260.9z M213.1,253.7h-3.8l0-0.5l0-0.5l0-0.5
	l-0.1-0.4l-0.1-0.4l-0.1-0.4l-0.1-0.4l-0.1-0.4l-0.1-0.3l-0.1-0.3l-0.1-0.3l-0.2-0.3l-0.2-0.3l-0.2-0.2l-0.2-0.2l-0.2-0.2l-0.2-0.2
	l-0.2-0.2l-0.3-0.2l-0.3-0.2l-0.3-0.2l-0.3-0.2l-0.3-0.1l-0.4-0.1l-0.4-0.1l-0.4-0.1l-0.4-0.1l-0.5-0.1l-0.5-0.1l-0.5,0l-0.5,0
	l-0.6,0v-3.8l0.7,0l0.7,0l0.6,0.1l0.6,0.1l0.6,0.1l0.6,0.1l0.6,0.1l0.6,0.2l0.5,0.2l0.5,0.2l0.5,0.2l0.5,0.3l0.5,0.3l0.5,0.3
	l0.4,0.3l0.4,0.4l0.4,0.4l0.4,0.4l0.3,0.4l0.3,0.5l0.3,0.5l0.3,0.5l0.2,0.5l0.2,0.5l0.2,0.5l0.1,0.6l0.1,0.6l0.1,0.6l0.1,0.6
	l0.1,0.6l0,0.6L213.1,253.7z M201.3,246.2L201.3,246.2h-5.1v-3.8h5.1V246.2z M196.2,242.4v3.8l-0.6,0l-0.5,0l-0.5,0l-0.5,0.1
	l-0.5,0.1l-0.4,0.1l-0.4,0.1l-0.4,0.1l-0.4,0.1l-0.3,0.1l-0.3,0.2l-0.3,0.2l-0.3,0.2l-0.3,0.2l-0.2,0.2l-0.2,0.2l-0.2,0.2l-0.2,0.2
	l-0.2,0.2l-0.2,0.3l-0.2,0.3l-0.1,0.3l-0.1,0.3l-0.1,0.3l-0.1,0.4l-0.1,0.4l-0.1,0.4l-0.1,0.4l-0.1,0.4l0,0.5l0,0.5l0,0.5h-3.8
	l0-0.6l0-0.6l0.1-0.6l0.1-0.6l0.1-0.6l0.1-0.6l0.1-0.6l0.2-0.5l0.2-0.5l0.2-0.5l0.3-0.5l0.3-0.5l0.3-0.5l0.3-0.4l0.4-0.4l0.4-0.4
	l0.4-0.4l0.4-0.3l0.5-0.3l0.5-0.3l0.5-0.3l0.5-0.2l0.5-0.2l0.5-0.2l0.6-0.2l0.6-0.1l0.6-0.1l0.6-0.1l0.6-0.1l0.6-0.1l0.7,0
	L196.2,242.4z M188.2,253.7L188.2,253.7v11.2h-3.8v-11.2H188.2z M184.4,264.9h3.8l0,0.1l0,0.1l0,0.1l0,0.1l0,0.1l0,0.1l0,0.1l0,0.1
	l0,0.1l0,0.1l0,0.1l0,0.1l0,0.1l0,0.1l0,0.1l0,0.1l0,0.1l0,0.1l0,0.1l0,0.1l0,0.1l0,0.1l0,0.1l0,0.1l0,0.1l0,0.1l0,0.1l0,0.1l0,0.1
	l0,0.1l0,0.1l0,0l-3.6,1.4l0-0.1l0-0.1l0-0.1l0-0.1l0-0.1l0-0.1l0-0.1l0-0.1l0-0.1l0-0.1l0-0.1l0-0.1l0-0.1l0-0.1l0-0.1l0-0.1l0-0.1
	l0-0.1l0-0.1l0-0.1l0-0.1l0-0.1l0-0.1l0-0.1l0-0.1l0-0.1l0-0.1l0-0.1l0-0.2l0-0.1l0-0.1L184.4,264.9z M185,269.1l3.6-1.4l0,0.1l0,0
	l0,0.1l0,0.1l0,0l0,0l0,0l0,0l0,0l0,0l0,0l0,0l0,0l0,0l0,0l0,0l0,0l0,0l0,0l0,0l0,0l0,0l0,0l0,0l0,0l0,0l0,0l0,0l0,0l0,0l0,0l0,0
	l-2.2,3.1l-0.1-0.1l-0.1-0.1l-0.1-0.1l-0.1-0.1l-0.1-0.1l-0.1-0.1l-0.1-0.1l-0.1-0.1l-0.1-0.1l-0.1-0.1l-0.1-0.1l-0.1-0.1l-0.1-0.1
	l-0.1-0.1l-0.1-0.1l-0.1-0.1l-0.1-0.1l-0.1-0.1l-0.1-0.1l-0.1-0.1l-0.1-0.1l-0.1-0.1l-0.1-0.1l-0.1-0.1l-0.1-0.1l-0.1-0.1l-0.1-0.1
	l-0.1-0.1l0-0.1l-0.1-0.1l0-0.1L185,269.1z M187.4,272.1L187.4,272.1z M187.4,272.1l2.2-3.1l0.1,0l0.1,0l0.1,0l0.1,0l0.1,0l0.1,0
	l0.1,0l0.1,0.1l0.1,0.1l0.1,0.1l0.1,0.1l0.1,0.1l0.1,0.1l0.1,0.1l0.1,0.1l0.1,0.1l0.1,0.1l0.1,0.1l0.1,0.1l0.1,0.1l0.1,0.1l0.1,0.1
	l0.1,0.1l0.1,0.1l0.1,0.1l0.1,0.1l0.1,0.1l0.1,0.1l0.1,0.1l0.2,0.1l0.1,0.1l0.2,0.1l-1.6,3.5l-0.2-0.1l-0.2-0.1l-0.2-0.1l-0.2-0.1
	l-0.2-0.1l-0.2-0.1l-0.2-0.1l-0.1-0.1l-0.1-0.1l-0.1-0.1l-0.1-0.1l-0.1-0.1l-0.1-0.1l-0.1-0.1l-0.1-0.1l-0.1-0.1l-0.1-0.1l-0.1-0.1
	l-0.1-0.1l-0.1-0.1l-0.1-0.1l-0.1-0.1l-0.1-0.1l-0.1-0.1l-0.1-0.1l-0.1-0.1l-0.1-0.1l-0.1-0.1l-0.1-0.1l-0.1-0.1L187.4,272.1
	L187.4,272.1z M193,270.9L193,270.9l0.1,0.1L193,270.9z M193,270.9L193,270.9l7.8,3.9l-1.7,3.4l-7.8-3.9L193,270.9z M200.9,274.8
	L200.9,274.8l-0.1-0.1L200.9,274.8z M199.2,278.2l1.7-3.4l0.1,0l0.1,0.1l0.1,0.1l0.1,0.1l0.1,0.1l0.1,0l0.1,0.1l0.1,0l0.1,0l0.1,0.1
	l0.1,0l0.1,0.1l0.1,0l0.1,0.1l0.1,0l0.1,0.1l0.1,0.1l0.1,0l0.1,0l0.1,0l0.1,0l0.1,0l0.1,0l0.1,0l0.1,0l0.1,0l0.1,0l0.1,0l0.1,0
	l0.1,0l0.1,0l0.1,0l0.1,0l-2.3,3l0,0l0,0l0,0l0,0l0,0l0,0l0,0l0,0l0,0l0,0l-0.1,0l-0.1,0l-0.1,0l-0.1,0l-0.1,0l-0.1,0l-0.1,0l-0.1,0
	l-0.1,0l-0.1,0l-0.1,0l-0.1,0l-0.1,0l-0.1,0l-0.1,0l-0.1,0l-0.1,0l-0.1,0l-0.1-0.1l-0.1,0L199.2,278.2L199.2,278.2L199.2,278.2z
	 M201.1,279.4l2.3-3v0l0.1,0.1l0.1,0.1l0.1,0.1l0.1,0.1l0.1,0.1l0.1,0.1l0.1,0.1l0.1,0.1l0.1,0.1l0.1,0.1l0.1,0.1l0.1,0.1l0,0.1
	l0,0.1l0,0.1l0,0.1l0,0.1l0,0.1l0,0.1l0,0.1l0,0.1l0,0.1l0,0.1l0,0.1l0,0.1l0,0.1l0,0.1l0,0.1l0,0.1l0,0.1l0,0.1l0,0.1H201l0-0.1
	l0-0.1l0-0.1l0-0.1l0-0.1l0,0l0,0l0,0L201.1,279.4L201.1,279.4L201.1,279.4L201.1,279.4l-0.1-0.1l0,0l0,0l0,0l0,0l0,0l0,0l0,0l0,0
	l0,0l0,0l0,0l0,0l0,0l0,0L201.1,279.4L201.1,279.4L201.1,279.4L201.1,279.4L201.1,279.4L201.1,279.4z M204.9,280L204.9,280v9.3H201
	V280H204.9z M201,289.3h3.8h0l0,0.3l0,0.3l0,0.3l0,0.3l0,0.3l-0.1,0.2l-0.1,0.2l-0.1,0.3l-0.1,0.2l-0.1,0.2l-0.1,0.2l-0.1,0.2
	l-0.1,0.2l-0.2,0.2l-0.2,0.2l-0.2,0.2l-0.2,0.2l-0.2,0.2l-0.2,0.2l-0.2,0.1l-0.2,0.1l-0.2,0.1l-0.2,0.1l-0.2,0.1l-0.2,0.1l-0.3,0.1
	l-0.3,0l-0.2,0l-0.2,0l-0.3,0l-0.3,0l-0.3,0v-3.8l0.1,0l0.1,0l0.1,0l0.1,0l0.1,0l0.1,0l0.1,0l0.1,0l0.1,0l0,0l0,0l0,0l0,0l0,0l0,0
	l0,0l0,0l0,0l0,0l0,0l0,0l0,0l0,0l0-0.1l0-0.1l0-0.1l0-0.1l0-0.1l0-0.1l0-0.1l0-0.1L201,289.3L201,289.3z M199.7,294.4L199.7,294.4
	h-1.5v-3.8h1.5V294.4z M198.2,290.6v3.8l-0.3,0l-0.3,0l-0.3,0l-0.3,0l-0.3,0l-0.3,0l-0.3-0.1l-0.3-0.1l-0.3-0.1l-0.3-0.1l-0.2-0.1
	l-0.2-0.1l-0.2-0.1l-0.2-0.1l-0.2-0.2l-0.2-0.2L194,293l-0.2-0.2l-0.2-0.2l-0.2-0.2l-0.2-0.2l-0.1-0.2l-0.1-0.2l-0.1-0.3l-0.1-0.3
	l-0.1-0.3l-0.1-0.3l0-0.3l0-0.3l0-0.3l0-0.3l0-0.3h3.8l0,0.1l0,0.1l0,0.1l0,0.1l0,0.1l0,0.1l0,0.1l0,0.1l0,0l0,0l0,0l0,0l0,0l0,0
	l0,0l0,0l0,0l0,0l0,0l0,0l0.1,0l0.1,0l0.1,0l0.1,0l0.1,0l0.1,0l0.1,0l0.1,0l0.1,0l0.2,0l0.2,0L198.2,290.6z M192.6,289.3
	L192.6,289.3l0-3h3.8v3H192.6z M194.5,284.4h1.9v1.9L194.5,284.4z M196.5,286.3l-1.9,1.9h-8.2v-3.8h8.2L196.5,286.3z M184.4,286.3
	v-1.9l1.9,0L184.4,286.3z M186.3,284.4l1.9,1.9v2.8h-3.8v-2.8L186.3,284.4z M184.4,289.1h3.8l0,0.6l0,0.5l0,0.5l0.1,0.5l0.1,0.5
	l0.1,0.4l0.1,0.4l0.1,0.4l0.1,0.4l0.1,0.3l0.2,0.3l0.2,0.3l0.2,0.3l0.2,0.3l0.2,0.2l0.2,0.2l0.2,0.2l0.2,0.2l0.3,0.2l0.3,0.2
	l0.3,0.2l0.3,0.2l0.3,0.1l0.4,0.1l0.4,0.1l0.4,0.1l0.4,0.1l0.4,0.1l0.5,0.1l0.5,0l0.5,0l0.5,0v3.8l-0.7,0l-0.7,0l-0.6-0.1l-0.6-0.1
	l-0.6-0.1l-0.6-0.1l-0.6-0.2l-0.6-0.2l-0.6-0.2l-0.5-0.2l-0.5-0.3l-0.5-0.3l-0.5-0.3l-0.5-0.3l-0.4-0.4l-0.4-0.4l-0.4-0.4l-0.4-0.4
	l-0.3-0.5l-0.3-0.5l-0.3-0.5l-0.2-0.5l-0.2-0.5l-0.2-0.6l-0.2-0.6l-0.1-0.6l-0.1-0.6l-0.1-0.6l-0.1-0.6l-0.1-0.6l0-0.7L184.4,289.1z
	 M196.2,297.2L196.2,297.2h5.1v3.8h-5.1V297.2z M201.2,301.1v-3.8l0.6,0l0.5,0l0.5,0l0.5-0.1l0.5-0.1l0.4-0.1l0.4-0.1l0.4-0.1
	l0.4-0.1l0.3-0.1l0.3-0.2l0.3-0.2l0.3-0.2l0.3-0.2l0.2-0.2l0.2-0.2l0.2-0.2l0.2-0.2l0.2-0.2l0.2-0.3l0.2-0.3l0.2-0.3l0.1-0.3
	l0.1-0.3l0.1-0.3l0.1-0.4l0.1-0.4l0.1-0.4l0.1-0.4l0-0.5l0-0.5l0-0.5h3.8l0,0.6l0,0.6l-0.1,0.6l-0.1,0.6l-0.1,0.6l-0.1,0.6l-0.1,0.6
	l-0.2,0.5l-0.2,0.5l-0.2,0.5l-0.2,0.5l-0.3,0.5l-0.3,0.4l-0.3,0.4l-0.4,0.4l-0.4,0.4l-0.4,0.4l-0.4,0.3l-0.4,0.3l-0.5,0.3l-0.5,0.3
	l-0.5,0.2l-0.5,0.2l-0.5,0.2l-0.6,0.2l-0.6,0.1l-0.6,0.1l-0.6,0.1l-0.6,0.1l-0.6,0.1l-0.7,0L201.2,301.1z M209.3,289.9L209.3,289.9
	v-11.7h3.8v11.7H209.3z M213.1,278.2h-3.8l0-0.2l0-0.2l0-0.2l0-0.2l0-0.2l0-0.1l0-0.1l0-0.1l0-0.1l0-0.1l0-0.1l0-0.1l0-0.1l0-0.1
	l0-0.1l0-0.1l0-0.1l0-0.1l0-0.1l0-0.1l0-0.1l0-0.1l0-0.1l0-0.1l0,0l0,0l0,0l0,0l0,0l0,0l0,0l0,0l3.3-1.9l0.1,0.1l0.1,0.1l0.1,0.1
	l0.1,0.1l0.1,0.1l0,0.1l0,0.1l0,0.1l0,0.1l0,0.1l0,0.1l0,0.1l0,0.1l0,0.1l0,0.1l0,0.2l0,0.1l0,0.2l0,0.2l0,0.2l0,0.2l0,0.2l0,0.2
	l0,0.2l0,0.2l0,0.2l0,0.2l0,0.2l0,0.2l0,0.2l0,0.2L213.1,278.2z M208.9,275.2L208.9,275.2l1.8,3L208.9,275.2z M212.2,273.3l-3.3,1.9
	v0l0,0l0,0l0,0l0,0l0,0l0,0l0,0l0,0l0,0l0,0l0,0l0,0l0,0l0,0l0,0l0,0l0,0l0,0l0,0l0,0l0,0l0,0l0,0l0,0l0,0l0,0l0,0l0,0l0,0l0,0
	l-0.1,0l0,0l2.1-3.2l0.1,0.1l0.1,0.1l0.1,0.1l0.1,0.1l0.1,0.1l0.1,0.1l0.1,0.1l0.1,0.1l0.1,0.1l0.1,0.1l0.1,0.1l0.1,0.1l0.1,0.1
	l0.1,0.1l0.1,0.1l0.1,0.1l0.1,0.1l0.1,0.1l0.1,0.1l0.1,0.1l0.1,0.1l0.1,0.1l0.1,0.1l0.1,0.1l0.1,0.1l0.1,0.1l0.1,0.1l0.1,0.1
	l0.1,0.1l0.1,0.1L212.2,273.3L212.2,273.3L212.2,273.3z M210,270.9l-2.1,3.2v0l-0.1,0l-0.1,0l-0.1,0l-0.1,0l-0.1,0l-0.1,0l-0.1-0.1
	l-0.1,0l-0.1,0l-0.1-0.1l-0.1,0l-0.1-0.1l-0.1-0.1l-0.1-0.1l-0.1-0.1l-0.1-0.1l-0.1-0.1l-0.1-0.1l-0.1-0.1l-0.1-0.1L206,273
	l-0.1-0.1l-0.1-0.1l-0.1-0.1l-0.1-0.1l-0.1-0.1l-0.1-0.1l-0.1-0.1l-0.1-0.1l-0.2-0.1l-0.1-0.1l-0.2-0.1l1.7-3.4l0.2,0.1l0.2,0.1
	l0.2,0.1l0.2,0.1l0.1,0.1l0.1,0.1l0.1,0.1l0.1,0.1l0.1,0.1l0.1,0.1l0.1,0.1l0.1,0.1l0.1,0.1l0.1,0.1l0.1,0.1l0.1,0.1l0.1,0.1
	l0.1,0.1l0.1,0.1l0.1,0.1l0.1,0.1l0.1,0.1l0.1,0.1l0.1,0.1l0.1,0.1l0.1,0.1l0.1,0.1l0.1,0.1l0.1,0.1l0.1,0.1L210,270.9L210,270.9
	L210,270.9z M206.1,268.8L206.1,268.8l0.2,0.1L206.1,268.8z M206.1,268.8l-1.7,3.4l-7.8-3.7l1.6-3.4L206.1,268.8L206.1,268.8z
	 M196.6,268.5L196.6,268.5L196.6,268.5L196.6,268.5z M198.3,265l-1.6,3.4l-0.1,0l-0.1-0.1l-0.1-0.1l-0.1-0.1l-0.1-0.1l-0.1,0
	l-0.1-0.1l-0.1,0l-0.1-0.1l-0.1,0l-0.1,0l-0.1-0.1l-0.1,0l-0.1-0.1l-0.1,0l-0.1-0.1l-0.1-0.1l-0.1,0l-0.1,0l-0.1,0l-0.1,0l-0.1,0
	l-0.1,0l-0.1,0l-0.1,0l-0.1,0l-0.1,0l-0.1,0l-0.1,0l-0.1,0l-0.1,0l-0.1,0l-0.1,0l2.3-3l0,0l0,0l0,0l0,0l0,0l0,0l0,0l0,0l0,0l0,0
	l0.1,0l0.1,0l0.1,0l0.1,0l0.1,0l0.1,0l0.1,0l0.1,0l0.1,0l0.1,0l0.1,0l0.1,0l0.1,0l0.1,0l0.1,0l0.1,0l0.1,0l0.1,0l0.1,0.1L198.3,265
	L198.3,265L198.3,265L198.3,265z M196.4,263.9l-2.3,3v0l-0.1-0.1l-0.1-0.1l-0.1-0.1l-0.1-0.1l-0.1-0.1l-0.1-0.1l-0.1-0.1l-0.1-0.1
	l-0.1-0.1l-0.1-0.1l-0.1-0.1l-0.1-0.1l0-0.1l0-0.1l0-0.1l0-0.1l0-0.1l0-0.1l0-0.1l0-0.1l0-0.1l0-0.1l0-0.1l0-0.1l0-0.1l0-0.1l0-0.1
	l0-0.1l0-0.1l0-0.1l0-0.1l0-0.1h3.8l0,0.1l0,0.1l0,0.1l0,0.1l0,0.1l0,0l0,0l0,0L196.4,263.9L196.4,263.9L196.4,263.9L196.4,263.9
	l0.1,0.1l0,0l0,0l0,0l0,0l0,0l0,0l0,0l0,0l0,0l0,0l0,0l0,0l0,0l0,0L196.4,263.9L196.4,263.9L196.4,263.9L196.4,263.9L196.4,263.9
	L196.4,263.9z M192.6,263.3L192.6,263.3l0-9.1h3.8v9.1H192.6z M196.4,254.2h-3.8l0-0.3l0-0.3l0-0.3l0-0.3l0-0.3l0.1-0.3l0.1-0.3
	l0.1-0.2l0.1-0.3l0.1-0.2l0.1-0.2l0.1-0.2l0.2-0.2l0.2-0.2l0.2-0.2l0.2-0.2l0.2-0.2l0.2-0.2l0.2-0.1l0.2-0.1l0.2-0.1l0.2-0.1
	l0.3-0.1l0.2-0.1l0.3-0.1l0.2-0.1l0.3-0.1l0.3,0l0.3,0l0.3,0l0.3,0l0.3,0v3.8l-0.2,0l-0.1,0l-0.1,0l-0.1,0l-0.1,0l-0.1,0l-0.1,0
	l-0.1,0l-0.1,0l-0.1,0l-0.1,0l0,0l0,0l0,0l0,0l0,0l0,0l0,0l0,0l0,0l0,0l0,0l0,0.1l0,0l0,0.1l0,0.1l0,0.1l0,0.1l0,0.1l0,0.1l0,0.1
	L196.4,254.2z M198.1,249L198.1,249l1.3,0v3.8h-1.3V249z M199.3,252.8V249l0.3,0l0.3,0l0.3,0l0.3,0l0.3,0l0.3,0.1l0.3,0.1l0.3,0.1
	l0.2,0.1l0.3,0.1l0.2,0.1l0.2,0.1l0.2,0.1l0.2,0.2l0.2,0.2l0.2,0.2l0.2,0.2l0.2,0.2l0.2,0.2l0.2,0.2l0.1,0.2l0.1,0.2l0.1,0.2
	l0.1,0.2l0.1,0.2l0.1,0.3l0.1,0.3l0,0.3l0,0.3l0,0.3l0,0.3l0,0.3H201l0-0.1l0-0.1l0-0.1l0-0.1l0-0.1l0-0.1l0-0.1l0-0.1l0-0.1l0,0
	l0,0l0,0l0,0l0,0l0,0l0,0l0,0l0,0l0,0l0,0l-0.1,0l-0.1,0l-0.1,0l-0.1,0l-0.1,0l-0.1,0l-0.1,0l-0.1,0l-0.1,0l-0.1,0l-0.2,0
	L199.3,252.8z M204.9,254.2L204.9,254.2v4.8H201v-4.8H204.9z M171.6,264.3h-2.9l1.2-2.7L171.6,264.3z M169.9,261.6l1.8-1.2h5v3.8h-5
	L169.9,261.6z M178.3,263.2l-0.5,1.1h-1.2L178.3,263.2z M176.6,264.3l-1.7-2.7l4.1-9.1l3.5,1.6l-4.1,9.1L176.6,264.3z M182.6,253.3
	v0.4l-0.2,0.4L182.6,253.3z M182.5,254.1l-3.7-0.8v-9.5h3.8v9.5L182.5,254.1z M180.7,241.9h1.9l0,1.9L180.7,241.9z M182.6,243.8
	l-1.9,1.9h-9.2v-3.8h9.2L182.6,243.8z M169.6,243.8v-1.9h1.9L169.6,243.8z M171.5,241.9l1.9,1.9v9.5h-3.8v-9.5L171.5,241.9z
	 M171.5,255.2h-1.9l0-1.9L171.5,255.2z M169.6,253.3l1.9-1.9h4v3.8h-4L169.6,253.3z M175.6,251.4h2.9l-1.2,2.7L175.6,251.4z
	 M175.6,251.4l1.8,2.7l-3.9,9.1l-3.5-1.5l3.9-9.1L175.6,251.4z M159.2,272.4v1.9l-1.9,0L159.2,272.4z M159.2,272.4l-1.9,1.9h-9.4
	v-3.8h9.4L159.2,272.4z M147.9,274.3h-1.9l0-1.9L147.9,274.3z M147.9,274.3l-1.9-1.9v-18.3h3.8v18.3L147.9,274.3z M149.8,254.1h-3.8
	l0-0.3l0-0.3l0-0.3l0-0.3l0-0.3l0.1-0.3l0.1-0.2l0.1-0.3l0.1-0.2l0.1-0.2l0.1-0.2l0.1-0.2l0.2-0.2l0.2-0.2l0.2-0.2l0.2-0.2l0.2-0.2
	l0.2-0.2l0.2-0.1l0.2-0.1l0.2-0.1l0.2-0.1l0.2-0.1l0.3-0.1l0.2-0.1l0.3-0.1l0.3,0l0.3,0l0.3,0l0.3,0l0.3,0l0.3,0v3.8l-0.2,0l-0.2,0
	l-0.1,0l-0.1,0l-0.1,0l-0.1,0l-0.1,0l-0.1,0l-0.1,0l-0.1,0l-0.1,0l-0.1,0l0,0l0,0l0,0l0,0l0,0l0,0l0,0l0,0l0,0l0,0l0,0l0,0.1l0,0.1
	l0,0.1l0,0.1l0,0.1l0,0.1l0,0.1l0,0.1L149.8,254.1z M151.5,249L151.5,249h2.2v3.8h-2.2V249z M153.7,252.8V249l0.3,0l0.3,0l0.3,0
	l0.3,0l0.3,0l0.3,0l0.3,0.1l0.2,0.1l0.3,0.1l0.2,0.1l0.2,0.1l0.2,0.1l0.2,0.1l0.2,0.1l0.2,0.2l0.2,0.2l0.2,0.2l0.2,0.2l0.2,0.2
	l0.2,0.2l0.1,0.2l0.1,0.2l0.1,0.2l0.1,0.2l0.1,0.3l0.1,0.2l0.1,0.3l0,0.3l0,0.3l0,0.3l0,0.3l0,0.3h-3.8l0-0.1l0-0.1l0-0.1l0-0.1
	l0-0.1l0-0.1l0-0.1l0-0.1l0-0.1l0,0l0,0l0,0l0,0l0,0l0,0l0,0l0,0l0,0l0,0l0,0l-0.1,0l-0.1,0l-0.1,0l-0.1,0l-0.1,0l-0.1,0l-0.1,0
	l-0.1,0l-0.1,0l-0.1,0l-0.2,0L153.7,252.8z M159.2,254.1L159.2,254.1v18.3h-3.8v-18.3H159.2z M149.8,299.2v1.9h-1.9L149.8,299.2z
	 M147.9,301.1l-1.9-1.9v-20.1h3.8v20.1L147.9,301.1z M145.9,279.1v-1.9h1.9L145.9,279.1z M145.9,279.1l1.9-1.9h9.4v3.8h-9.4
	L145.9,279.1z M157.3,277.1h1.9v1.9L157.3,277.1z M157.3,277.1l1.9,1.9v20.1h-3.8v-20.1L157.3,277.1z M157.3,301.1h-1.9v-1.9
	L157.3,301.1z M155.4,299.2l1.9-1.9h8.2v3.8h-8.2L155.4,299.2z M167.5,299.2v1.9h-1.9L167.5,299.2z M165.5,301.1l-1.9-1.9v-45.5h3.8
	v45.5L165.5,301.1z M167.5,253.7h-3.8l0-0.5l0-0.5l0-0.5l-0.1-0.4l-0.1-0.4l-0.1-0.4l-0.1-0.4l-0.1-0.4l-0.1-0.3l-0.1-0.3l-0.1-0.3
	l-0.2-0.3l-0.2-0.3l-0.2-0.2l-0.2-0.2l-0.2-0.2l-0.2-0.2l-0.2-0.2l-0.3-0.2l-0.3-0.2l-0.3-0.2l-0.3-0.2l-0.3-0.1l-0.4-0.1l-0.4-0.1
	l-0.4-0.1l-0.4-0.1l-0.5-0.1l-0.5-0.1l-0.5,0l-0.5,0l-0.6,0v-3.8l0.7,0l0.7,0l0.6,0.1l0.6,0.1l0.6,0.1l0.6,0.1l0.6,0.1l0.6,0.2
	l0.5,0.2l0.5,0.2l0.5,0.2l0.5,0.3l0.5,0.3l0.5,0.3l0.4,0.3l0.4,0.4l0.4,0.4l0.4,0.4l0.3,0.4l0.3,0.5l0.3,0.5l0.3,0.5l0.2,0.5
	l0.2,0.5l0.2,0.5l0.1,0.6l0.1,0.6l0.1,0.6l0.1,0.6l0.1,0.6l0,0.6L167.5,253.7z M155.7,246.2L155.7,246.2h-6.2v-3.8h6.2V246.2z
	 M149.5,242.4v3.8l-0.6,0l-0.5,0l-0.5,0l-0.5,0.1l-0.5,0.1l-0.4,0.1l-0.4,0.1l-0.4,0.1l-0.4,0.1l-0.3,0.1l-0.3,0.2l-0.3,0.2
	l-0.3,0.2l-0.3,0.2l-0.2,0.2l-0.2,0.2l-0.2,0.2l-0.2,0.2l-0.2,0.2l-0.2,0.3l-0.2,0.3l-0.1,0.3l-0.1,0.3l-0.1,0.3l-0.1,0.4l-0.1,0.4
	l-0.1,0.4l-0.1,0.4l-0.1,0.4l0,0.5l0,0.5l0,0.5h-3.8l0-0.6l0-0.6l0.1-0.6l0.1-0.6l0.1-0.6l0.1-0.6l0.1-0.6l0.2-0.5l0.2-0.5l0.2-0.5
	l0.3-0.5l0.3-0.5l0.3-0.5l0.3-0.4l0.4-0.4l0.4-0.4l0.4-0.4l0.4-0.3l0.5-0.3l0.5-0.3l0.5-0.3l0.5-0.2l0.5-0.2l0.5-0.2l0.6-0.2
	l0.6-0.1l0.6-0.1l0.6-0.1l0.6-0.1l0.6-0.1l0.7,0L149.5,242.4z M141.5,253.7L141.5,253.7v45.5h-3.8v-45.5H141.5z M139.6,301.1h-1.9
	v-1.9L139.6,301.1z M137.7,299.2l1.9-1.9h8.2v3.8h-8.2L137.7,299.2z M125.5,250.9V249l1.9,0L125.5,250.9z M125.5,250.9l1.9-1.9h7.9
	v3.8h-7.9L125.5,250.9z M137.3,250.9v1.9h-1.9L137.3,250.9z M135.3,252.8l-1.9-1.9v-6.6h3.8v6.6L135.3,252.8z M135.3,242.4h1.9v1.9
	L135.3,242.4z M137.3,244.3l-1.9,1.9h-24v-3.8h24L137.3,244.3z M109.4,244.3v-1.9h1.9L109.4,244.3z M111.3,242.4l1.9,1.9v6.6h-3.8
	v-6.6L111.3,242.4z M111.3,252.8h-1.9v-1.9L111.3,252.8z M109.4,250.9l1.9-1.9h7.9v3.8h-7.9L109.4,250.9z M119.2,249h1.9v1.9
	L119.2,249z M119.2,249l1.9,1.9v48.2h-3.8v-48.2L119.2,249z M119.2,301.1h-1.9v-1.9L119.2,301.1z M117.3,299.2l1.9-1.9h8.2v3.8h-8.2
	L117.3,299.2z M129.4,299.2v1.9h-1.9L129.4,299.2z M127.4,301.1l-1.9-1.9v-48.2h3.8v48.2L127.4,301.1z M98.3,260.9h-1.9l0-1.9
	L98.3,260.9z M96.4,259l1.9-1.9h8.2v3.8h-8.2L96.4,259z M108.5,259v1.9h-1.9L108.5,259z M106.6,260.9l-1.9-1.9v-5.4h3.8v5.4
	L106.6,260.9z M108.5,253.7h-3.8l0-0.5l0-0.5l0-0.5l-0.1-0.4l-0.1-0.4l-0.1-0.4l-0.1-0.4l-0.1-0.4l-0.1-0.3l-0.1-0.3l-0.1-0.3
	l-0.2-0.3l-0.2-0.3l-0.2-0.2l-0.2-0.2l-0.2-0.2l-0.2-0.2l-0.2-0.2l-0.3-0.2l-0.3-0.2l-0.3-0.2l-0.3-0.2l-0.3-0.1l-0.4-0.1l-0.4-0.1
	l-0.4-0.1l-0.4-0.1l-0.5-0.1l-0.5-0.1l-0.5,0l-0.5,0l-0.6,0v-3.8l0.7,0l0.7,0l0.6,0.1l0.6,0.1l0.6,0.1l0.6,0.1l0.6,0.1l0.6,0.2
	l0.5,0.2l0.5,0.2l0.5,0.2l0.5,0.3l0.5,0.3l0.5,0.3l0.4,0.3l0.4,0.4l0.4,0.4l0.4,0.4l0.3,0.4l0.3,0.5l0.3,0.5l0.3,0.5l0.2,0.5
	l0.2,0.5l0.2,0.5l0.1,0.6l0.1,0.6l0.1,0.6l0.1,0.6l0.1,0.6l0,0.6L108.5,253.7z M96.7,246.2L96.7,246.2h-5.2v-3.8h5.2V246.2z
	 M91.6,242.4v3.8l-0.6,0l-0.5,0l-0.5,0l-0.5,0.1l-0.5,0.1l-0.4,0.1l-0.4,0.1l-0.4,0.1l-0.4,0.1l-0.3,0.1l-0.3,0.2l-0.3,0.2l-0.3,0.2
	l-0.3,0.2l-0.2,0.2l-0.2,0.2l-0.2,0.2l-0.2,0.2l-0.2,0.2l-0.2,0.3l-0.2,0.3l-0.1,0.3l-0.1,0.3l-0.1,0.3l-0.1,0.4l-0.1,0.4l-0.1,0.4
	l-0.1,0.4l-0.1,0.4l0,0.5l0,0.5l0,0.5h-3.8l0-0.6l0-0.6l0.1-0.6l0.1-0.6l0.1-0.6l0.1-0.6l0.1-0.6l0.2-0.5l0.2-0.5l0.2-0.5l0.3-0.5
	l0.3-0.5l0.3-0.5l0.3-0.4l0.4-0.4l0.4-0.4l0.4-0.4l0.4-0.3l0.5-0.3l0.5-0.3l0.5-0.3l0.5-0.2l0.5-0.2l0.5-0.2l0.6-0.2l0.6-0.1
	l0.6-0.1l0.6-0.1l0.6-0.1l0.6-0.1l0.7,0L91.6,242.4z M83.6,253.7L83.6,253.7v11.2h-3.8v-11.2H83.6z M79.8,264.9h3.8l0,0.1l0,0.1
	l0,0.1l0,0.1l0,0.1l0,0.1l0,0.1l0,0.1l0,0.1l0,0.1l0,0.1l0,0.1l0,0.1l0,0.1l0,0.1l0,0.1l0,0.1l0,0.1l0,0.1l0,0.1l0,0.1l0,0.1l0,0.1
	l0,0.1l0,0.1l0,0.1l0,0.1l0,0.1l0,0.1l0,0.1l0,0.1l0,0.1l-3.6,1.4l0-0.1l0-0.1l0-0.1l0-0.1l0-0.1l0-0.1l0-0.1l0-0.1l0-0.1l0-0.1
	l0-0.1l0-0.1l0-0.1l0-0.1l0-0.1l0-0.1l0-0.1l0-0.1l0-0.1l0-0.1l0-0.1l0-0.1l0-0.1l0-0.1l0-0.1l0-0.1l0-0.1l0-0.1l0-0.2l0-0.1l0-0.1
	L79.8,264.9z M80.4,269.1L80.4,269.1l1.2,3.2L80.4,269.1z M80.4,269.1l3.6-1.4v0l0,0.1l0,0l0,0.1l0,0.1l0,0l0,0l0,0l0,0l0,0l0,0l0,0
	l0,0l0,0l0,0l0,0l0,0l0,0l0,0l0,0l0,0l0,0l0,0l0,0l0,0l0,0l0,0l0,0l0,0l0,0l0,0l0,0l0,0l-2.2,3.1l-0.1-0.1l-0.1-0.1l-0.1-0.1
	l-0.1-0.1l-0.1-0.1l-0.1-0.1l-0.1-0.1l-0.1-0.1l-0.1-0.1l-0.1-0.1l-0.1-0.1l-0.1-0.1l-0.1-0.1l-0.1-0.1l-0.1-0.1l-0.1-0.1l-0.1-0.1
	l-0.1-0.1l-0.1-0.1l-0.1-0.1l-0.1-0.1l-0.1-0.1l-0.1-0.1l-0.1-0.1l-0.1-0.1l-0.1-0.1l0-0.1l-0.1-0.1l-0.1-0.1l-0.1-0.1l0-0.1
	L80.4,269.1L80.4,269.1z M82.8,272.1L85,269l0.1,0l0.1,0l0.1,0l0.1,0l0.1,0l0.1,0l0.1,0l0.1,0.1l0.1,0.1l0.1,0.1l0.1,0.1l0.1,0.1
	l0.1,0.1l0.1,0.1l0.1,0.1l0.1,0.1l0.1,0.1l0.1,0.1l0.1,0.1l0.1,0.1l0.1,0.1l0.1,0.1l0.1,0.1l0.1,0.1l0.1,0.1l0.1,0.1l0.1,0.1
	l0.1,0.1l0.1,0.1l0.2,0.1l0.1,0.1l0.2,0.1l-1.6,3.5l-0.2-0.1l-0.2-0.1l-0.2-0.1l-0.2-0.1L86,274l-0.2-0.1l-0.2-0.1l-0.1-0.1
	l-0.1-0.1l-0.1-0.1l-0.1-0.1l-0.1-0.1l-0.1-0.1l-0.1-0.1l-0.1-0.1l-0.1-0.1l-0.1-0.1l-0.1-0.1l-0.1-0.1l-0.1-0.1l-0.1-0.1l-0.1-0.1
	l-0.1-0.1l-0.1-0.1l-0.1-0.1l-0.1-0.1l-0.1-0.1l-0.1-0.1l-0.1-0.1l-0.1-0.1L82.8,272.1L82.8,272.1z M88.4,270.9L88.4,270.9l0.2,0.1
	L88.4,270.9z M88.4,270.9L88.4,270.9l7.8,3.9l-1.7,3.4l-7.8-3.9L88.4,270.9z M96.3,274.8L96.3,274.8l-0.1-0.1L96.3,274.8z
	 M94.6,278.2l1.7-3.4l0.1,0l0.1,0.1l0.1,0.1l0.1,0.1l0.1,0.1l0.1,0l0.1,0.1l0.1,0l0.1,0l0.1,0.1l0.1,0l0.1,0.1l0.1,0l0.1,0.1l0.1,0
	l0.1,0.1l0.1,0.1l0.1,0l0.1,0l0.1,0l0.1,0l0.1,0l0.1,0l0.1,0l0.1,0l0.1,0l0.1,0l0.1,0l0.1,0l0.1,0l0.1,0l0.1,0l0.1,0l-2.3,3l0,0l0,0
	l0,0l0,0l0,0l0,0l0,0l0,0l0,0l0,0l-0.1,0l-0.1,0l0,0l-0.1,0l-0.1,0l-0.1,0l-0.1,0l-0.1,0l-0.1,0l-0.1,0l-0.1,0l-0.1,0l-0.1,0l-0.1,0
	l-0.1,0l-0.1,0l-0.1,0l-0.1,0l-0.1-0.1l-0.1,0L94.6,278.2L94.6,278.2L94.6,278.2z M96.5,279.4l2.3-3v0l0.1,0.1l0.1,0.1l0.1,0.1
	l0.1,0.1l0.1,0.1l0.1,0.1l0.1,0.1l0.1,0.1l0.1,0.1l0.1,0.1l0.1,0.1l0.1,0.1l0,0.1l0,0.1l0,0.1l0,0.1l0,0.1l0,0.1l0,0.1l0,0.1l0,0.1
	l0,0.1l0,0.1l0,0.1l0,0.1l0,0.1l0,0.1l0,0.1l0,0.1l0,0.1l0,0.1l0,0.1h-3.8l0-0.1l0-0.1l0-0.1l0-0.1l0-0.1l0,0l0-0.1l0,0L96.5,279.4
	L96.5,279.4L96.5,279.4L96.5,279.4l-0.1-0.1l0,0l0,0l0,0l0,0l0,0l0,0l0,0l0,0l0,0l0,0l0,0l0,0l0,0L96.5,279.4L96.5,279.4L96.5,279.4
	L96.5,279.4L96.5,279.4L96.5,279.4L96.5,279.4z M100.3,280L100.3,280v9.3h-3.8V280H100.3z M96.4,289.3h3.8h0l0,0.3l0,0.3l0,0.3
	l0,0.3l0,0.3l-0.1,0.2l-0.1,0.2l-0.1,0.3l-0.1,0.2l-0.1,0.2l-0.1,0.2l-0.1,0.2l-0.1,0.2l-0.2,0.2l-0.2,0.2l-0.2,0.2l-0.2,0.2
	l-0.2,0.2l-0.2,0.2l-0.2,0.1l-0.2,0.1l-0.2,0.1l-0.2,0.1l-0.2,0.1l-0.2,0.1l-0.3,0.1l-0.3,0l-0.2,0l-0.2,0l-0.3,0l-0.3,0l-0.3,0
	v-3.8l0.1,0l0.1,0l0.1,0l0.1,0l0.1,0l0.1,0l0.1,0l0.1,0l0.1,0l0,0l0,0l0,0l0,0l0,0l0,0l0,0l0,0l0,0l0,0l0,0l0,0l0,0l0,0l0-0.1l0-0.1
	l0-0.1l0-0.1l0-0.1l0-0.1l0-0.1l0-0.1L96.4,289.3L96.4,289.3z M95.1,294.4L95.1,294.4h-1.5v-3.8h1.5V294.4z M93.6,290.6v3.8l-0.3,0
	l-0.3,0l-0.3,0l-0.3,0l-0.3,0l-0.3,0l-0.3-0.1l-0.3-0.1l-0.3-0.1L91,294l-0.2-0.1l-0.2-0.1l-0.2-0.1l-0.2-0.1l-0.2-0.2l-0.2-0.2
	l-0.2-0.2l-0.2-0.2l-0.2-0.2l-0.2-0.2l-0.2-0.2l-0.1-0.2l-0.1-0.2l-0.1-0.3l-0.1-0.3l-0.1-0.3l-0.1-0.3l0-0.3l0-0.3l0-0.3l0-0.3
	l0-0.3h3.8l0,0.1l0,0.1l0,0.1l0,0.1l0,0.1l0,0.1l0,0.1l0,0.1l0,0l0,0l0,0l0,0l0,0l0,0l0,0l0,0l0,0l0,0l0,0l0,0l0.1,0l0.1,0l0.1,0
	l0.1,0l0.1,0l0.1,0l0.1,0l0.1,0l0.1,0l0.2,0l0.2,0L93.6,290.6z M88,289.3L88,289.3l0-3h3.8v3H88z M89.9,284.4h1.9l0,1.9L89.9,284.4z
	 M91.9,286.3l-1.9,1.9h-8.2v-3.8h8.2L91.9,286.3z M79.8,286.3v-1.9l1.9,0L79.8,286.3z M81.7,284.4l1.9,1.9v2.8h-3.8v-2.8L81.7,284.4
	z M79.8,289.1h3.8l0,0.6l0,0.5l0,0.5l0.1,0.5l0.1,0.5l0.1,0.4l0.1,0.4l0.1,0.4l0.1,0.4l0.1,0.3l0.2,0.3l0.2,0.3l0.2,0.3l0.2,0.3
	l0.2,0.3l0.2,0.2l0.2,0.2l0.2,0.2l0.3,0.2l0.3,0.2l0.3,0.2l0.3,0.2l0.3,0.1l0.4,0.1l0.4,0.1l0.4,0.1l0.4,0.1l0.4,0.1l0.5,0.1l0.5,0
	l0.5,0l0.5,0v3.8l-0.7,0l-0.7,0l-0.6-0.1l-0.6-0.1l-0.6-0.1l-0.6-0.1l-0.6-0.2l-0.6-0.2l-0.5-0.2l-0.5-0.2l-0.5-0.3l-0.5-0.3
	l-0.5-0.3l-0.5-0.3l-0.4-0.4l-0.4-0.4l-0.4-0.4l-0.4-0.4l-0.3-0.5l-0.3-0.5l-0.3-0.5l-0.2-0.5l-0.2-0.5l-0.2-0.6l-0.2-0.6l-0.1-0.6
	l-0.1-0.6l-0.1-0.6l-0.1-0.6l-0.1-0.6l0-0.7L79.8,289.1z M91.6,297.2L91.6,297.2h5.1v3.8h-5.1V297.2z M96.6,301.1v-3.8l0.6,0l0.5,0
	l0.5,0l0.5-0.1l0.5-0.1l0.4-0.1l0.4-0.1l0.4-0.1l0.4-0.1l0.3-0.1l0.3-0.2l0.3-0.2l0.3-0.2l0.3-0.2l0.2-0.2l0.2-0.2l0.2-0.2l0.2-0.2
	l0.2-0.2l0.2-0.3l0.2-0.3l0.2-0.3l0.1-0.3l0.1-0.3l0.1-0.3l0.1-0.4l0.1-0.4l0.1-0.4l0.1-0.4l0-0.5l0-0.5l0-0.5h3.8l0,0.6l0,0.6
	l-0.1,0.6l-0.1,0.6l-0.1,0.6l-0.1,0.6l-0.1,0.6l-0.2,0.5l-0.2,0.5l-0.2,0.5l-0.3,0.5l-0.3,0.5l-0.3,0.4l-0.3,0.4l-0.4,0.4l-0.4,0.4
	l-0.4,0.4l-0.4,0.3l-0.4,0.3l-0.5,0.3l-0.5,0.3l-0.5,0.2l-0.5,0.2l-0.5,0.2l-0.6,0.2l-0.6,0.1l-0.6,0.1l-0.6,0.1l-0.6,0.1l-0.6,0.1
	l-0.7,0L96.6,301.1z M104.7,289.9L104.7,289.9v-11.7h3.8v11.7H104.7z M108.5,278.2h-3.8l0-0.2l0-0.2l0-0.2l0-0.2l0-0.2l0-0.1l0-0.1
	l0-0.1l0-0.1l0-0.1l0-0.1l0-0.1l0-0.1l0-0.1l0-0.1l0-0.1l0-0.1l0-0.1l0-0.1l0-0.1l0-0.1l0-0.1l0-0.1l0-0.1l0,0l0,0l0,0l0,0l0,0l0,0
	l0,0l0,0l3.3-1.9l0.1,0.1l0.1,0.1l0.1,0.1l0.1,0.1l0.1,0.1l0,0.1l0,0.1l0,0.1l0,0.1l0,0.1l0,0.1l0,0.1l0,0.1l0,0.2l0,0.1l0,0.2
	l0,0.1l0,0.2l0,0.2l0,0.2l0,0.2l0,0.2l0,0.2l0,0.2l0,0.2l0,0.2l0,0.2l0,0.2l0,0.2l0,0.2l0,0.2L108.5,278.2z M107.6,273.3
	L107.6,273.3z M107.6,273.3l-3.3,1.9l0,0l0,0l0,0l0,0l0,0l0,0l0,0l0,0l0,0l0,0l0,0l0,0l0,0l0,0l0,0l0,0l0,0l0,0l0,0l0,0l0,0l0,0l0,0
	l0,0l0,0l0,0l0,0l0,0l0,0l0,0l-0.1,0l0,0l2.1-3.2l0.1,0.1l0.1,0.1l0.1,0.1l0.1,0.1l0.1,0.1l0.1,0.1l0.1,0.1l0.1,0.1l0.1,0.1l0.1,0.1
	l0.1,0.1l0.1,0.1l0.1,0.1l0.1,0.1l0.1,0.1l0.1,0.1l0.1,0.1l0.1,0.1l0.1,0.1l0.1,0.1l0.1,0.1l0.1,0.1l0.1,0.1l0.1,0.1l0.1,0.1
	l0.1,0.1l0.1,0.1l0.1,0.1l0.1,0.1l0.1,0.1L107.6,273.3L107.6,273.3z M105.4,270.9l-2.1,3.2v0l-0.1,0l-0.1,0l-0.1,0l-0.1,0l-0.1,0
	l-0.1-0.1l-0.1,0l-0.1,0l-0.1,0l-0.1-0.1l-0.1,0l-0.1-0.1l-0.1-0.1l-0.1-0.1l-0.1-0.1l-0.1-0.1l-0.1-0.1l-0.1-0.1l-0.1-0.1l-0.1-0.1
	l-0.1-0.1l-0.1-0.1l-0.1-0.1l-0.1-0.1l-0.1-0.1l-0.1-0.1l-0.1-0.1l-0.1-0.1l-0.1-0.1l-0.2-0.1l-0.1-0.1l-0.2-0.1l1.7-3.4l0.2,0.1
	l0.2,0.1l0.2,0.1l0.2,0.1l0.1,0.1l0.1,0.1l0.1,0.1l0.1,0.1l0.1,0.1l0.1,0.1l0.1,0.1l0.1,0.1l0.1,0.1l0.1,0.1l0.1,0.1l0.1,0.1
	l0.1,0.1l0.1,0.1l0.1,0.1l0.1,0.1l0.1,0.1l0.1,0.1l0.1,0.1l0.1,0.1l0.1,0.1l0.1,0.1l0.1,0.1l0.1,0.1l0.1,0.1l0.1,0.1L105.4,270.9
	L105.4,270.9L105.4,270.9z M101.5,268.8L101.5,268.8l0.2,0.1L101.5,268.8z M101.5,268.8l-1.7,3.4l-7.8-3.7l1.6-3.4L101.5,268.8
	L101.5,268.8z M92,268.5L92,268.5L92,268.5L92,268.5z M93.7,265l-1.6,3.4l-0.1,0l-0.1-0.1l-0.1-0.1l-0.1-0.1l-0.1-0.1l-0.1,0
	l-0.1-0.1l-0.1,0l-0.1,0l-0.1-0.1l-0.1,0l-0.1-0.1l-0.1,0l-0.1-0.1l-0.1,0l-0.1-0.1l-0.1-0.1l-0.1,0l-0.1,0l-0.1,0l-0.1,0l-0.1,0
	l-0.1,0l-0.1,0l-0.1,0l-0.1,0l-0.1,0l-0.1,0l-0.1,0l-0.1,0l-0.1,0l-0.1,0l-0.1,0l2.3-3l0,0l0,0l0,0l0,0l0,0l0,0l0,0l0,0l0,0l0,0
	l0.1,0l0.1,0l0.1,0l0.1,0l0.1,0l0.1,0l0.1,0l0.1,0l0.1,0l0.1,0l0.1,0l0.1,0l0.1,0l0.1,0l0.1,0l0.1,0l0.1,0l0.1,0l0.1,0.1L93.7,265
	L93.7,265L93.7,265L93.7,265z M91.8,263.9l-2.3,3l-0.1-0.1l-0.1-0.1l-0.1-0.1l-0.1-0.1l-0.1-0.1l-0.1-0.1l-0.1-0.1l-0.1-0.1
	l-0.1-0.1l-0.1-0.1l-0.1-0.1l-0.1-0.1l0-0.1l0-0.1l0-0.1l0-0.1l0-0.1l0-0.1l0-0.1l0-0.1l0-0.1l0-0.1l0-0.1l0-0.1l0-0.1l0-0.1l0-0.1
	l0-0.1l0-0.1l0-0.1l0-0.1l0-0.1h3.8l0,0.1l0,0.1l0,0.1l0,0.1l0,0.1l0,0l0,0.1l0,0L91.8,263.9L91.8,263.9L91.8,263.9L91.8,263.9
	l0.1,0.1l0,0l0,0l0,0l0,0l0,0l0,0l0,0l0,0l0,0l0,0l0,0l0,0l0,0L91.8,263.9L91.8,263.9L91.8,263.9L91.8,263.9L91.8,263.9L91.8,263.9z
	 M88,263.3L88,263.3l0-9.1h3.8v9.1H88z M91.8,254.2H88l0-0.3l0-0.3l0-0.3l0-0.3l0-0.3l0.1-0.3l0.1-0.3l0.1-0.2l0.1-0.3l0.1-0.2
	l0.1-0.2l0.1-0.2L89,251l0.2-0.2l0.2-0.2l0.2-0.2l0.2-0.2l0.2-0.2l0.2-0.1l0.2-0.1l0.2-0.1l0.2-0.1l0.3-0.1l0.2-0.1l0.3-0.1l0.2-0.1
	l0.3-0.1l0.3,0l0.3,0l0.3,0l0.3,0l0.3,0v3.8l-0.2,0l-0.1,0l-0.1,0l-0.1,0l-0.1,0l-0.1,0l-0.1,0l-0.1,0l-0.1,0l-0.1,0l-0.1,0l0,0l0,0
	l0,0l0,0l0,0l0,0l0,0l0,0l0,0l0,0l0,0l0,0.1l0,0l0,0.1l0,0.1l0,0.1l0,0.1l0,0.1l0,0.1l0,0.1L91.8,254.2z M93.5,249L93.5,249h1.3v3.8
	h-1.3V249z M94.7,252.8V249l0.3,0l0.3,0l0.3,0l0.3,0l0.3,0l0.3,0.1l0.3,0.1l0.3,0.1l0.2,0.1l0.3,0.1l0.2,0.1l0.2,0.1l0.2,0.1
	l0.2,0.2l0.2,0.2l0.2,0.2l0.2,0.2l0.2,0.2l0.2,0.2l0.2,0.2l0.1,0.2l0.1,0.2l0.1,0.2l0.1,0.2l0.1,0.2l0.1,0.3l0.1,0.3l0,0.3l0,0.3
	l0,0.3l0,0.3l0,0.3h-3.8l0-0.1l0-0.1l0-0.1l0-0.1l0-0.1l0-0.1l0-0.1l0-0.1l0-0.1l0,0l0,0l0,0l0,0l0,0l0,0l0,0l0,0l0,0l0,0l0,0
	l-0.1,0l-0.1,0l-0.1,0l-0.1,0l-0.1,0l-0.1,0l-0.1,0l-0.1,0l-0.1,0l-0.1,0l-0.2,0L94.7,252.8z M100.3,254.2L100.3,254.2v4.8h-3.8
	v-4.8H100.3z M59.6,290.6v3.8l-0.3,0l-0.3,0l-0.3,0l-0.3,0l-0.3,0l-0.3,0l-0.3-0.1l-0.3-0.1l-0.3-0.1l-0.3-0.1l-0.2-0.1l-0.2-0.1
	l-0.2-0.1l-0.2-0.1l-0.2-0.2l-0.2-0.2l-0.2-0.2l-0.2-0.2l-0.2-0.2l-0.2-0.2l-0.2-0.2l-0.1-0.2l-0.1-0.2l-0.1-0.3l-0.1-0.3l-0.1-0.3
	l-0.1-0.3l0-0.3l0-0.3l0-0.3l0-0.3l0-0.3h3.8l0,0.1l0,0.1l0,0.1l0,0.1l0,0.1l0,0.1l0,0.1l0,0.1l0,0l0,0l0,0l0,0l0,0l0,0l0,0l0,0l0,0
	l0,0l0,0l0.1,0l0.1,0l0.1,0l0.1,0l0.1,0l0.1,0l0.1,0l0.1,0l0.1,0l0.1,0l0.2,0l0.2,0L59.6,290.6z M54,289.3L54,289.3v-35.2h3.8v35.2
	H54z M57.8,254.1H54h0l0-0.3l0-0.3l0-0.3l0-0.3l0-0.3l0.1-0.3l0.1-0.2l0.1-0.3l0.1-0.2l0.1-0.2l0.1-0.2l0.1-0.2l0.2-0.2l0.2-0.2
	l0.2-0.2l0.2-0.2l0.2-0.2l0.2-0.2l0.2-0.1l0.2-0.1l0.2-0.1l0.2-0.1l0.2-0.1l0.3-0.1l0.2-0.1l0.3-0.1l0.3,0l0.3,0l0.3,0l0.3,0l0.3,0
	l0.3,0v3.8l-0.2,0l-0.2,0l-0.1,0l-0.1,0l-0.1,0l-0.1,0l-0.1,0l-0.1,0l-0.1,0l-0.1,0l-0.1,0l-0.1,0l0,0l0,0l0,0l0,0l0,0l0,0l0,0l0,0
	l0,0l0,0l0,0l0,0.1l0,0.1l0,0.1l0,0.1l0,0.1l0,0.1l0,0.1l0,0.1L57.8,254.1L57.8,254.1z M59.5,249L59.5,249h3.9v3.8h-3.9V249z
	 M63.3,252.8V249l0.3,0l0.3,0l0.3,0l0.3,0l0.3,0l0.3,0l0.3,0.1l0.3,0.1l0.3,0.1l0.2,0.1l0.3,0.1l0.2,0.1l0.2,0.1l0.2,0.2l0.2,0.2
	l0.2,0.2l0.2,0.2l0.2,0.2l0.2,0.2l0.2,0.2l0.2,0.2l0.1,0.2l0.1,0.2l0.1,0.3l0.1,0.3l0.1,0.3l0.1,0.3l0,0.3l0,0.3l0,0.3l0,0.3l0,0.3
	h-3.8l0-0.1l0-0.1l0-0.1l0-0.1l0-0.1l0-0.1l0-0.1l0-0.1l0,0l0,0l0,0l0,0l0,0l0,0l0,0l0,0l0,0l0,0l0,0l-0.1,0l-0.1,0l-0.1,0l-0.1,0
	l-0.1,0l-0.1,0l-0.1,0l-0.1,0l-0.1,0l-0.1,0l-0.2,0l-0.2,0L63.3,252.8z M68.9,254.1L68.9,254.1l0,35.2h-3.8v-35.2H68.9z M65.1,289.3
	h3.8l0,0.3l0,0.3l0,0.3l0,0.3l0,0.3l-0.1,0.2l-0.1,0.2l-0.1,0.3l-0.1,0.2l-0.1,0.2l-0.1,0.2l-0.1,0.2l-0.1,0.2l-0.2,0.2l-0.2,0.2
	l-0.2,0.2l-0.2,0.2l-0.2,0.2l-0.2,0.2l-0.2,0.1l-0.2,0.1l-0.2,0.1L66,294l-0.2,0.1l-0.2,0.1l-0.3,0.1l-0.3,0l-0.2,0l-0.3,0l-0.3,0
	l-0.3,0l-0.3,0v-3.8l0.1,0l0.1,0l0.1,0l0.1,0l0.1,0l0.1,0l0.1,0l0.1,0l0.1,0l0,0l0,0l0,0l0,0l0,0l0,0l0,0l0,0l0,0l0,0l0,0l0,0l0,0
	l0,0l0-0.1l0-0.1l0-0.1l0-0.1l0-0.1l0-0.1l0-0.1l0-0.1L65.1,289.3z M63.8,294.4L63.8,294.4l-4.2,0v-3.8h4.2V294.4z M57.6,297.2
	L57.6,297.2h7.7v3.8h-7.7V297.2z M65.3,301.1v-3.8l0.6,0l0.5,0l0.5,0l0.5-0.1l0.5-0.1l0.4-0.1l0.4-0.1l0.4-0.1l0.4-0.1l0.3-0.1
	l0.3-0.1l0.3-0.2l0.3-0.2l0.3-0.2l0.2-0.2l0.2-0.2l0.2-0.2l0.2-0.2l0.2-0.2l0.2-0.3l0.2-0.3l0.2-0.3l0.1-0.3l0.1-0.3l0.1-0.4
	l0.1-0.4l0.1-0.4l0.1-0.4l0.1-0.4l0-0.5l0-0.5l0-0.5h3.8l0,0.6l0,0.6l-0.1,0.6l-0.1,0.6l-0.1,0.6l-0.1,0.6l-0.1,0.6l-0.2,0.5
	l-0.2,0.5l-0.2,0.5l-0.3,0.5l-0.3,0.5l-0.3,0.5l-0.3,0.4l-0.4,0.4l-0.4,0.4l-0.4,0.4l-0.4,0.3l-0.4,0.3l-0.5,0.3l-0.5,0.3l-0.5,0.2
	l-0.5,0.2l-0.5,0.2l-0.6,0.2l-0.6,0.1l-0.6,0.1l-0.6,0.1l-0.6,0.1l-0.6,0.1l-0.7,0L65.3,301.1z M73.4,289.8L73.4,289.8l0-36.2h3.8
	v36.2H73.4z M77.2,253.7h-3.8h0l0-0.5l0-0.5l0-0.5l-0.1-0.4l-0.1-0.4l-0.1-0.4l-0.1-0.4l-0.1-0.4l-0.1-0.3l-0.1-0.3l-0.1-0.3
	l-0.2-0.3l-0.2-0.3l-0.2-0.2l-0.2-0.2l-0.2-0.2l-0.2-0.2l-0.2-0.2l-0.3-0.2l-0.3-0.2l-0.3-0.2l-0.3-0.2l-0.3-0.1l-0.4-0.1l-0.4-0.1
	l-0.4-0.1l-0.4-0.1l-0.5-0.1l-0.5-0.1l-0.5,0l-0.5,0l-0.6,0v-3.8l0.7,0l0.7,0l0.6,0.1l0.6,0.1l0.6,0.1l0.6,0.1l0.6,0.1l0.6,0.2
	l0.5,0.2l0.5,0.2l0.5,0.2l0.5,0.3l0.5,0.3l0.5,0.3l0.4,0.3l0.4,0.4l0.4,0.4l0.4,0.4l0.3,0.4l0.3,0.5l0.3,0.5l0.3,0.5l0.2,0.5
	l0.2,0.5l0.2,0.5l0.1,0.6l0.1,0.6l0.1,0.6l0.1,0.6l0.1,0.6l0,0.6L77.2,253.7L77.2,253.7z M65.4,246.2L65.4,246.2h-7.9v-3.8h7.9
	V246.2z M57.5,242.4v3.8l-0.6,0l-0.5,0l-0.5,0l-0.5,0.1l-0.5,0.1l-0.4,0.1l-0.4,0.1l-0.4,0.1l-0.4,0.1l-0.3,0.1l-0.3,0.2l-0.3,0.2
	l-0.3,0.2l-0.3,0.2l-0.2,0.2l-0.2,0.2l-0.2,0.2l-0.2,0.2l-0.2,0.2l-0.2,0.3l-0.2,0.3l-0.1,0.3l-0.1,0.3l-0.1,0.3l-0.1,0.4l-0.1,0.4
	l-0.1,0.4l-0.1,0.4l-0.1,0.4l0,0.5l0,0.5l0,0.5h-3.8l0-0.6l0-0.6l0.1-0.6l0.1-0.6l0.1-0.6l0.1-0.6l0.1-0.6l0.2-0.5l0.2-0.5l0.2-0.5
	l0.3-0.5l0.3-0.5l0.3-0.5L48,246l0.4-0.4l0.4-0.4l0.4-0.4l0.4-0.3l0.5-0.3l0.5-0.3l0.5-0.3l0.5-0.2l0.5-0.2l0.5-0.2l0.6-0.2l0.6-0.1
	l0.6-0.1l0.6-0.1l0.6-0.1l0.6-0.1l0.7,0L57.5,242.4z M49.5,253.7L49.5,253.7l0,36.2h-3.8v-36.2H49.5z M45.7,289.8h3.8h0l0,0.5l0,0.5
	l0,0.5l0.1,0.4l0.1,0.4l0.1,0.4l0.1,0.4l0.1,0.4l0.1,0.3l0.1,0.3l0.2,0.3l0.2,0.3l0.2,0.3L51,295l0.2,0.2l0.2,0.2l0.2,0.2l0.2,0.2
	l0.3,0.2l0.3,0.2l0.3,0.2l0.3,0.1l0.3,0.1l0.4,0.1l0.4,0.1l0.4,0.1L55,297l0.5,0.1l0.5,0.1l0.5,0l0.5,0l0.6,0v3.8l-0.7,0l-0.7,0
	l-0.6-0.1l-0.6-0.1l-0.6-0.1l-0.6-0.1l-0.6-0.1l-0.6-0.2l-0.5-0.2l-0.5-0.2l-0.5-0.2l-0.5-0.3l-0.5-0.3l-0.4-0.3l-0.4-0.3l-0.4-0.4
	l-0.4-0.4l-0.4-0.4l-0.3-0.4l-0.3-0.4l-0.3-0.5l-0.3-0.5l-0.2-0.5l-0.2-0.5l-0.2-0.5l-0.1-0.6l-0.1-0.6l-0.1-0.6l-0.1-0.6l-0.1-0.6
	l0-0.6L45.7,289.8L45.7,289.8z M41.6,284.4h1.9v1.9L41.6,284.4z M43.5,286.3l-1.9,1.9h-8.2v-3.8h8.2L43.5,286.3z M31.5,286.3v-1.9
	h1.9L31.5,286.3z M33.4,284.4l1.9,1.9v3h-3.8v-3L33.4,284.4z M31.5,289.3h3.8h0l0,0.3l0,0.3l0,0.3l0,0.3l0,0.3l0,0.2l-0.1,0.2
	l-0.1,0.2l-0.1,0.2l-0.1,0.2l-0.1,0.2l-0.1,0.2l-0.1,0.2l-0.2,0.2l-0.2,0.2l-0.2,0.2l-0.2,0.2l-0.2,0.2l-0.2,0.2l-0.2,0.1l-0.2,0.1
	l-0.2,0.1l-0.2,0.1l-0.2,0.1l-0.2,0.1l-0.3,0.1l-0.3,0l-0.3,0l-0.2,0l-0.3,0l-0.3,0l-0.3,0v-3.8l0.1,0l0.1,0l0.1,0l0.1,0l0.1,0
	l0.1,0l0.1,0l0.1,0l0.1,0l0,0l0,0l0,0l0,0l0,0l0,0l0,0l0,0l0,0l0,0l0,0l0,0l0,0l0,0l0-0.1l0-0.1l0-0.1l0-0.1l0-0.1l0-0.1l0-0.1
	l0-0.1L31.5,289.3L31.5,289.3z M30.1,294.4L30.1,294.4h-2.1v-3.8h2.1V294.4z M28.1,290.6v3.8l-0.3,0l-0.3,0l-0.3,0l-0.2,0l-0.2,0
	l-0.3,0l-0.3-0.1l-0.2-0.1l-0.2-0.1l-0.2-0.1l-0.2-0.1l-0.2-0.1l-0.2-0.1l-0.2-0.2l-0.2-0.2l-0.2-0.2l-0.2-0.2l-0.2-0.2l-0.2-0.2
	l-0.1-0.2l-0.1-0.2l-0.1-0.2l-0.1-0.2l-0.1-0.2l-0.1-0.2l-0.1-0.2l0-0.2l0-0.3l0-0.3l0-0.3l0-0.3l0-0.3h3.8l0,0.1l0,0.1l0,0.1l0,0.1
	l0,0.1l0,0.1l0,0.1l0,0.1l0,0.1l0,0l0,0l0,0l0,0l0,0l0,0l0,0l0,0l0,0l0,0l0,0l0,0l0,0l0,0l0.1,0l0.1,0l0.1,0l0.1,0l0.1,0l0.1,0
	l0.1,0l0.1,0L28.1,290.6z M22.9,289.3L22.9,289.3v-35.2h3.8v35.2H22.9z M26.7,254.1h-3.8h0l0-0.3l0-0.3l0-0.3l0-0.3l0-0.3l0-0.2
	l0.1-0.2l0.1-0.2l0.1-0.2l0.1-0.2l0.1-0.2l0.1-0.2l0.1-0.2l0.2-0.2l0.2-0.2l0.2-0.2l0.2-0.2l0.2-0.2l0.2-0.2l0.2-0.1l0.2-0.1
	l0.2-0.1l0.2-0.1l0.2-0.1l0.2-0.1l0.3-0.1l0.3,0l0.2,0l0.2,0l0.3,0l0.3,0l0.3,0v3.8l-0.1,0l-0.1,0l-0.1,0l-0.1,0l-0.1,0l-0.1,0
	l-0.1,0l-0.1,0l-0.1,0l0,0l0,0l0,0l0,0l0,0l0,0l0,0l0,0l0,0l0,0l0,0l0,0l0,0l0,0l0,0.1l0,0.1l0,0.1l0,0.1l0,0.1l0,0.1l0,0.1l0,0.1
	L26.7,254.1L26.7,254.1z M28.1,249L28.1,249h1.6v3.8h-1.6V249z M29.7,252.8V249l0.3,0l0.3,0l0.3,0l0.3,0l0.3,0l0.3,0l0.3,0.1
	l0.3,0.1l0.3,0.1l0.2,0.1l0.3,0.1l0.2,0.1l0.2,0.1l0.2,0.2l0.2,0.2l0.2,0.2l0.2,0.2l0.2,0.2l0.2,0.2l0.2,0.2l0.2,0.2l0.1,0.2
	l0.1,0.2l0.1,0.2l0.1,0.3l0.1,0.3l0.1,0.3l0,0.3l0,0.3l0,0.3l0,0.3l0,0.3h-3.8l0-0.1l0-0.1l0-0.1l0-0.1l0-0.1l0-0.1l0-0.1l0-0.1
	l0-0.1l0,0l0,0l0,0l0,0l0,0l0,0l0,0l0,0l0,0l0,0l-0.1,0l-0.1,0l-0.1,0l-0.1,0l-0.1,0l-0.1,0l-0.1,0l-0.1,0l-0.1,0l-0.1,0l-0.2,0
	l-0.2,0L29.7,252.8z M35.3,254.1L35.3,254.1v5.7h-3.8v-5.7H35.3z M33.4,261.7h-1.9l0-1.9L33.4,261.7z M31.5,259.8l1.9-1.9h8.2v3.8
	h-8.2L31.5,259.8z M43.5,259.8v1.9l-1.9,0L43.5,259.8z M41.6,261.7l-1.9-1.9v-6.2h3.8v6.2L41.6,261.7z M43.5,253.6h-3.8l0-0.5l0-0.5
	l0-0.5l-0.1-0.4l-0.1-0.4l-0.1-0.4l-0.1-0.4l-0.1-0.3l-0.1-0.3l-0.1-0.3l-0.1-0.3l-0.2-0.3l-0.2-0.3l-0.2-0.2l-0.2-0.2l-0.2-0.2
	l-0.2-0.2l-0.2-0.2l-0.3-0.2l-0.3-0.2l-0.3-0.2l-0.3-0.1l-0.3-0.1l-0.4-0.1l-0.4-0.1l-0.4-0.1l-0.4-0.1l-0.5-0.1l-0.5-0.1l-0.5,0
	l-0.5,0l-0.6,0v-3.8l0.7,0l0.7,0l0.6,0.1l0.6,0.1l0.6,0.1l0.6,0.1l0.6,0.1l0.6,0.2l0.5,0.2l0.5,0.2l0.5,0.2l0.5,0.3l0.5,0.3l0.5,0.3
	l0.4,0.3l0.4,0.4l0.4,0.4l0.4,0.4l0.3,0.4l0.3,0.5l0.3,0.5l0.3,0.5l0.2,0.5l0.2,0.5l0.2,0.5l0.1,0.6l0.1,0.6l0.1,0.6l0.1,0.6
	l0.1,0.6l0,0.6L43.5,253.6z M31.8,246.2L31.8,246.2h-5.3v-3.8h5.3V246.2z M26.4,242.4v3.8l-0.6,0l-0.5,0l-0.5,0l-0.5,0.1l-0.5,0.1
	l-0.4,0.1l-0.4,0.1l-0.4,0.1l-0.4,0.1l-0.3,0.1l-0.3,0.1l-0.3,0.2l-0.3,0.2l-0.3,0.2l-0.2,0.2l-0.2,0.2l-0.2,0.2l-0.2,0.2l-0.2,0.2
	l-0.2,0.3l-0.2,0.3l-0.1,0.3l-0.1,0.3l-0.1,0.3l-0.1,0.3l-0.1,0.4l-0.1,0.4l-0.1,0.4l-0.1,0.4l0,0.5l0,0.5l0,0.5h-3.8l0-0.6l0-0.6
	l0.1-0.6l0.1-0.6l0.1-0.6l0.1-0.6l0.1-0.6l0.2-0.5l0.2-0.5l0.2-0.5l0.3-0.5l0.3-0.5l0.3-0.5L17,246l0.4-0.4l0.4-0.4l0.4-0.4l0.4-0.3
	l0.5-0.3l0.5-0.3l0.5-0.3l0.5-0.2l0.5-0.2l0.5-0.2l0.6-0.2l0.6-0.1l0.6-0.1l0.6-0.1l0.6-0.1l0.6-0.1l0.7,0L26.4,242.4z M18.5,253.6
	L18.5,253.6v36.2h-3.8v-36.2H18.5z M14.6,289.8h3.8l0,0.5l0,0.5l0,0.5l0.1,0.4l0.1,0.4l0.1,0.4l0.1,0.4l0.1,0.3l0.1,0.3l0.1,0.3
	l0.1,0.3l0.2,0.3l0.2,0.3l0.2,0.2l0.2,0.2l0.2,0.2l0.2,0.2l0.2,0.2l0.3,0.2l0.3,0.2l0.3,0.2l0.3,0.1l0.3,0.1l0.4,0.1l0.4,0.1
	l0.4,0.1l0.4,0.1l0.5,0.1l0.5,0.1l0.5,0l0.5,0l0.6,0v3.8l-0.7,0l-0.7,0l-0.6-0.1l-0.6-0.1l-0.6-0.1l-0.6-0.1l-0.6-0.1l-0.6-0.2
	l-0.5-0.2l-0.5-0.2l-0.5-0.2l-0.5-0.3l-0.5-0.3l-0.5-0.3l-0.4-0.3l-0.4-0.4l-0.4-0.4l-0.4-0.4l-0.3-0.4l-0.3-0.5l-0.3-0.5l-0.3-0.5
	l-0.2-0.5l-0.2-0.5l-0.2-0.5l-0.1-0.6l-0.1-0.6l-0.1-0.6l-0.1-0.6l-0.1-0.6l0-0.6L14.6,289.8z M26.4,297.2L26.4,297.2h5.3v3.8h-5.3
	V297.2z M31.8,301.1v-3.8l0.6,0l0.5,0l0.5,0l0.5-0.1l0.5-0.1l0.4-0.1l0.4-0.1l0.4-0.1l0.4-0.1l0.3-0.1l0.3-0.1l0.3-0.2l0.3-0.2
	l0.3-0.2l0.2-0.2l0.2-0.2l0.2-0.2l0.2-0.2l0.2-0.2l0.2-0.3l0.2-0.3l0.1-0.3l0.1-0.3l0.1-0.3l0.1-0.3l0.1-0.4l0.1-0.4l0.1-0.4
	l0.1-0.4l0-0.5l0-0.5l0-0.5h3.8l0,0.6l0,0.6l-0.1,0.6l-0.1,0.6l-0.1,0.6l-0.1,0.6L43,294l-0.2,0.5l-0.2,0.5l-0.2,0.5l-0.3,0.5
	l-0.3,0.5l-0.3,0.5l-0.3,0.4l-0.4,0.4l-0.4,0.4l-0.4,0.4l-0.4,0.3l-0.5,0.3l-0.5,0.3l-0.5,0.3l-0.5,0.2l-0.5,0.2l-0.5,0.2l-0.6,0.2
	l-0.6,0.1l-0.6,0.1l-0.6,0.1l-0.6,0.1l-0.6,0.1l-0.7,0L31.8,301.1z M39.7,289.8L39.7,289.8v-3.5h3.8v3.5H39.7z"/>
<path class="st1" d="M441,279.1v-6.6h12.5v26.8h-16.1c-6.4,0-9.5-3.1-9.5-9.2v-36.2c0-6.3,3.2-9.4,9.5-9.4h5.7
	c7,0,10.5,3.2,10.5,9.6v6h-8.2v-4.9c0-2.6-1.2-4-3.5-4h-2.1c-2.4,0-3.6,1.3-3.6,4v33.6c0,2.6,1.2,4,3.6,4h5.6v-13.5H441z
	 M412.3,270.8v-26.5h8.2v54.9h-8.2v-10.9l-8.8-25v35.9h-8.2v-54.9h8.2L412.3,270.8z M379.3,299.2v-54.9h8.2v54.9H379.3z
	 M363.3,270.8v-26.5h8.2v54.9h-8.2v-10.9l-8.8-25v35.9h-8.2v-54.9h8.2L363.3,270.8z M330.7,272.4v-18.3c0-2.1-1.2-3.2-3.6-3.2h-2.2
	c-2.4,0-3.6,1.1-3.6,3.2v18.3H330.7z M321.3,299.2H313v-45.5c0-6.3,3.3-9.4,9.9-9.4h6.2c6.6,0,9.9,3.1,9.9,9.4v45.5h-8.2v-20.1h-9.4
	V299.2z M287.1,299.2v-54.9h20.4v6.6h-12.2v16.7h10.8v6.6h-10.8v18.3h12.2v6.6H287.1z M281.6,299.2H262v-54.9h8.2v48.2h11.3V299.2z
	 M255.6,286.3v3.5c0,6.2-3.3,9.3-9.9,9.3h-5.3c-6.6,0-9.9-3.1-9.9-9.3v-36.2c0-6.2,3.3-9.3,9.9-9.3h5.3c6.6,0,9.9,3.1,9.9,9.3v6.2
	h-8.2v-5.7c0-2.1-1.2-3.2-3.7-3.2H242c-2.2,0-3.3,1.1-3.3,3.2v35.2c0,2.1,1.1,3.2,3.3,3.2h2.1c2.2,0,3.3-1.1,3.3-3.2v-3H255.6z
	 M202.9,259v-4.8c0-2.2-1.2-3.3-3.6-3.3h-1.3c-2.3,0-3.5,1.1-3.5,3.3v9.1c0,1,0.2,1.7,0.7,2.1c0.5,0.4,1.2,0.8,2.2,1.4l7.8,3.7
	c1.7,0.9,2.9,1.5,3.6,2c0.7,0.5,1.3,1.1,1.7,1.8c0.4,0.7,0.6,2,0.6,3.9v11.7c0,6.2-3.3,9.2-10,9.2h-5.1c-6.6,0-9.9-3.4-9.9-10.1
	v-2.8h8.2v3c0,2.1,1.2,3.2,3.7,3.2h1.5c2.2,0,3.3-1.1,3.3-3.2V280c0-1-0.2-1.7-0.7-2.1c-0.5-0.4-1.2-0.8-2.2-1.4l-7.8-3.9
	c-1.7-0.8-3-1.5-3.7-2.1c-0.8-0.6-1.3-1.3-1.7-2.2c-0.3-0.9-0.5-2.1-0.5-3.5v-11.2c0-6.3,3.3-9.4,9.9-9.4h5.1c6.6,0,9.9,3.1,9.9,9.4
	v5.4H202.9z M171.6,262.4l3.9-9.1h-4v-9.5h9.2v9.5l-4.1,9.1H171.6z M157.3,272.4v-18.3c0-2.1-1.2-3.2-3.6-3.2h-2.2
	c-2.4,0-3.6,1.1-3.6,3.2v18.3H157.3z M147.9,299.2h-8.2v-45.5c0-6.3,3.3-9.4,9.9-9.4h6.2c6.6,0,9.9,3.1,9.9,9.4v45.5h-8.2v-20.1
	h-9.4V299.2z M127.4,250.9v48.2h-8.2v-48.2h-7.9v-6.6h24v6.6H127.4z M98.3,259v-4.8c0-2.2-1.2-3.3-3.6-3.3h-1.3
	c-2.3,0-3.5,1.1-3.5,3.3v9.1c0,1,0.2,1.7,0.7,2.1c0.5,0.4,1.2,0.8,2.2,1.4l7.8,3.7c1.7,0.9,2.9,1.5,3.6,2c0.7,0.5,1.3,1.1,1.7,1.8
	c0.4,0.7,0.6,2,0.6,3.9v11.7c0,6.2-3.3,9.2-10,9.2h-5.1c-6.6,0-9.9-3.4-9.9-10.1v-2.8h8.2v3c0,2.1,1.2,3.2,3.7,3.2h1.5
	c2.2,0,3.3-1.1,3.3-3.2V280c0-1-0.2-1.7-0.7-2.1c-0.5-0.4-1.2-0.8-2.2-1.4l-7.8-3.9c-1.7-0.8-3-1.5-3.7-2.1
	c-0.8-0.6-1.3-1.3-1.7-2.2c-0.3-0.9-0.5-2.1-0.5-3.5v-11.2c0-6.3,3.3-9.4,9.9-9.4h5.2c6.6,0,9.9,3.1,9.9,9.4v5.4H98.3z M59.6,292.5
	h4.2c2.2,0,3.3-1.1,3.3-3.2v-35.2c0-2.1-1.2-3.2-3.7-3.2h-3.9c-2.4,0-3.6,1.1-3.6,3.2v35.2C55.9,291.4,57.1,292.5,59.6,292.5z
	 M57.6,299.2c-6.6,0-10-3.1-10-9.3v-36.2c0-6.3,3.3-9.4,9.9-9.4h7.9c6.6,0,9.9,3.1,9.9,9.4v36.2c0,6.2-3.3,9.3-10,9.3H57.6z
	 M41.6,286.3v3.5c0,6.2-3.3,9.3-9.9,9.3h-5.3c-6.6,0-9.9-3.1-9.9-9.3v-36.2c0-6.2,3.3-9.3,9.9-9.3h5.3c6.6,0,9.9,3.1,9.9,9.3v6.2
	h-8.2v-5.7c0-2.1-1.2-3.2-3.7-3.2h-1.6c-2.2,0-3.3,1.1-3.3,3.2v35.2c0,2.1,1.1,3.2,3.3,3.2h2.1c2.2,0,3.3-1.1,3.3-3.2v-3H41.6z"/>
<path class="st0" d="M355,163.1l2.2-12.8c0,0-0.6-5.1,5.2-13.4c4.2-6.1,29-37.9,42.2-54.7l-29.9,66.3l-0.1,0.3c0,0-1.4,6-7.9,10.5
	C362.9,161.9,358.2,162.8,355,163.1 M378.6,197.4c0,0-2.7-3.9-3.9-5.1c-1.2-1.2-2.3-1.9-2.3-1.9l1.9-4.3l-16.7-7
	c0,0-3.9-3.5-3.9-5.8c0-1.9,0.5-5.5,0.7-6.7c3.6-0.2,9.5-1.2,14.2-4.5c6.9-4.8,8.9-11.2,9.2-12.3l36.3-80.5c0.9-1.4,2.3-2.8,3.8-3.1
	c3.1-0.6,6,0.4,6,0.4l2.5,1.4l7-16.3c0,0,0.4-2.5,7-5.1c6.6-2.5,26.5-10.7,26.5-10.7l2.1,4.7l-27.9,13.8l-7.2,16.3
	c0,0,3.7,3.1,2.3,7c-1.4,3.9-1.7,4.5-1.7,4.5l-45.5,105c0,0-1,1.9-2.7,2.3c-1.7,0.4-4.7,0-4.7,0L378.6,197.4z M363.7,223.8
	c5.1,0,9.3-4.2,9.3-9.3c0-5.1-4.2-9.3-9.3-9.3c-5.1,0-9.3,4.2-9.3,9.3C354.4,219.6,358.6,223.8,363.7,223.8z M297.7,222.4h55.2l0,0
	c-1.6-2.2-2.6-5-2.6-7.9c0-7.4,6-13.4,13.4-13.4c7,0,12.7,5.3,13.4,12.1h12l-1.7-4h-6c0,0-5-22.5-28.6-23.2
	c-23.6-0.7-27.2,17.9-27.2,17.9l-23.3,4.3L297.7,222.4z"/>
</svg>
