<?xml version="1.0" encoding="utf-8"?>
<!-- Generator: Adobe Illustrator 21.1.0, SVG Export Plug-In . SVG Version: 6.00 Build 0)  -->
<svg version="1.1" id="Layer_1" xmlns="http://www.w3.org/2000/svg" xmlns:xlink="http://www.w3.org/1999/xlink" x="0px" y="0px"
	 viewBox="0 0 495 264" style="enable-background:new 0 0 495 264;" xml:space="preserve">
<style type="text/css">
	.st0{fill-rule:evenodd;clip-rule:evenodd;}
	.st1{fill:#ED174C;}
</style>
<path class="st0" d="M107.5,88.7l-79.1,39.1l-0.2-7.6L107.6,78L107.5,88.7z M212.2,37l-77.6,38.4V63.7l77.6-41.2l170.5,67.3
	l-3.1,5.8L212.2,37z"/>
<path class="st0" d="M172,148.6c-0.1-1.9-0.1-3.9-0.1-5.8c0-6.4,0.5-13,1.8-19.3l-13,12.4L172,148.6z M139.4,153.9l-3.9,3.8v62.9
	h-28.9l0-184L135.5,19v107.2l29-29c34.3-32.6,86-42.4,126.9-15.5l2.1,1.4v31.9l-7.1-4.5c-5.8-3.7-11.6-7.7-17.8-10.8
	c-3.7-1.8-7.6-3.1-11.5-4.2c-4.6-1.2-9.5-1.6-14.2-1.6c-5.6,0-11,1-16.2,3.1c-5.1,2.1-9.4,5.1-13.2,9c-4.1,4.4-6.8,9.6-8.8,15.2
	c-2.4,6.8-3.2,14.1-3.2,21.3c0,7.2,0.8,14.8,3.4,21.6c2.1,5.5,5,10.7,9.1,15c3.6,3.9,7.9,6.8,12.9,8.7c5.1,2,10.5,3,16,3
	c4.9,0,9.9-0.5,14.7-1.7c4.1-1,8.2-2.4,12-4.4c3-1.5,6-3.2,8.8-5.2c2-1.4,4.1-2.9,5.9-4.6l1.3-1.2h7.9v26.5l-0.5,1
	c-5.9,12.1-32.9,18.1-44.7,19.1c-27.6,2.3-53.4-7-73-26.8L139.4,153.9z"/>
<path class="st1" d="M178.5,162.8c-1.4-6.1-2.1-12.8-2.1-20c0-11,1.6-20.6,4.7-28.8c1-2.5,2.1-5,3.4-7.3l-30.3,29L178.5,162.8z
	 M178.6,190.6l-39.1-43.4l-8.7,8.6V216h-19.7l0-176.8l19.7-12v110.1l36.8-36.7c25.3-24,75.2-45.2,121.1-15v21.1
	c-5.9-3.7-11.9-7.9-18.2-11c-3.8-1.8-7.9-3.3-12.3-4.5c-4.4-1.2-9.6-1.8-15.4-1.8c-6.3,0-12.3,1.1-17.9,3.4s-10.6,5.7-14.8,10.2
	c-4.2,4.5-7.4,10.1-9.7,16.9c-2.3,6.8-3.5,14.4-3.5,22.9c0,9,1.2,16.8,3.7,23.3c2.5,6.5,5.8,12,10.1,16.5c4.1,4.3,9,7.6,14.5,9.8
	c5.6,2.2,11.5,3.3,17.7,3.3c5.7,0,11-0.6,15.8-1.8c4.9-1.2,9.2-2.8,12.9-4.7c3.7-1.8,6.8-3.7,9.4-5.6c2.7-1.9,4.8-3.5,6.3-4.9h1.5
	v20.8C283.1,211.4,222.2,234.5,178.6,190.6z"/>
<path class="st0" d="M15.5,226.8h416c4.5,0,8.4-0.5,12.8-1.9c4.2-1.4,7-3.1,8.5-4.9c1.1-1.3,1.5-2.6,1.3-3.9
	c-0.2-1.4-1.2-2.9-2.8-4.2c-4.9-4.2-15.1-7.5-29.1-7.5h0v0c-10.8,0-19.5-4.1-25.4-9.9c-6-5.9-9.2-13.5-9.2-20.7h0v0h3.5v0h0
	c0,6.2,2.9,13,8.1,18.1c5.3,5.2,13.1,8.9,22.9,8.9v0h0c14.9,0,26,3.7,31.4,8.4c2.2,1.9,3.6,4.1,3.9,6.3c0.4,2.3-0.3,4.6-2.1,6.8
	c-5.1,6-15.8,8.1-23.4,8.2H15.5V226.8z"/>
<polygon class="st0" points="79.8,109.2 79.8,218.6 72.8,218.6 72.8,113 "/>
<path class="st0" d="M355,159.2l2.2-12.8c0,0-0.6-5.1,5.2-13.4c4.2-6.1,29-37.9,42.2-54.7l-29.9,66.3l-0.1,0.3c0,0-1.4,6-7.9,10.5
	C362.9,158,358.2,159,355,159.2 M378.6,193.5c0,0-2.7-3.9-3.9-5.1c-1.2-1.2-2.3-1.9-2.3-1.9l1.9-4.3l-16.7-7c0,0-3.9-3.5-3.9-5.8
	c0-1.9,0.5-5.5,0.7-6.7c3.6-0.2,9.5-1.2,14.2-4.5c6.9-4.8,8.9-11.2,9.2-12.3l36.3-80.5c0.9-1.4,2.3-2.8,3.8-3.1c3.1-0.6,6,0.4,6,0.4
	l2.5,1.4l7-16.3c0,0,0.4-2.5,7-5.1c6.6-2.5,26.5-10.7,26.5-10.7l2.1,4.7l-27.9,13.8l-7.2,16.3c0,0,3.7,3.1,2.3,7
	c-1.4,3.9-1.7,4.5-1.7,4.5l-45.5,105c0,0-1,1.9-2.7,2.3c-1.7,0.4-4.7,0-4.7,0L378.6,193.5z M363.7,220c5.1,0,9.3-4.2,9.3-9.3
	c0-5.1-4.2-9.3-9.3-9.3c-5.1,0-9.3,4.2-9.3,9.3C354.4,215.8,358.6,220,363.7,220z M297.7,218.6h55.2l0,0c-1.6-2.2-2.6-5-2.6-7.9
	c0-7.4,6-13.4,13.4-13.4c7,0,12.7,5.3,13.4,12.1h12l-1.7-4h-6c0,0-5-22.5-28.6-23.2c-23.6-0.7-27.2,17.9-27.2,17.9l-23.3,4.3
	L297.7,218.6z"/>
</svg>
